<?xml version="1.0" encoding="UTF-8"?>
<svg xmlns="http://www.w3.org/2000/svg" xmlns:xlink="http://www.w3.org/1999/xlink" width="429px" height="70px" viewBox="0 0 104 17" version="1.1">
<g id="surface1">
<path style=" stroke:none;fill-rule:evenodd;fill:rgb(100%,100%,100%);fill-opacity:1;" d="M 11.039062 5.878906 C 11.03125 5.949219 11.03125 6.023438 11.039062 6.097656 L 11.023438 6.097656 L 11.023438 6.175781 L 11.007812 6.175781 L 10.976562 6.269531 L 10.960938 6.269531 C 10.960938 6.28125 10.960938 6.289062 10.960938 6.300781 L 10.929688 6.316406 L 10.867188 6.394531 L 10.804688 6.410156 C 10.804688 6.417969 10.804688 6.421875 10.804688 6.425781 L 10.742188 6.441406 C 10.742188 6.449219 10.742188 6.453125 10.742188 6.457031 L 10.667969 6.457031 C 10.667969 6.464844 10.667969 6.46875 10.667969 6.472656 L 10.554688 6.472656 L 10.554688 6.457031 L 10.445312 6.441406 L 10.445312 6.425781 L 10.414062 6.425781 L 10.414062 6.410156 L 10.382812 6.410156 L 10.367188 6.378906 L 10.335938 6.378906 L 10.289062 6.316406 L 10.273438 6.316406 C 10.273438 6.308594 10.273438 6.296875 10.273438 6.285156 L 10.242188 6.269531 L 10.226562 6.207031 L 10.210938 6.207031 C 10.210938 6.191406 10.210938 6.175781 10.210938 6.160156 C 10.175781 6.050781 10.1875 5.933594 10.242188 5.835938 C 10.292969 5.734375 10.382812 5.660156 10.492188 5.625 L 10.648438 5.609375 L 10.648438 5.625 L 10.742188 5.625 M 9.246094 7.652344 L 8.992188 7.402344 C 8.925781 7.363281 8.878906 7.292969 8.867188 7.214844 C 8.84375 7.128906 8.839844 7.035156 8.851562 6.945312 C 8.851562 6.695312 8.851562 6.445312 8.851562 6.195312 C 8.867188 6.09375 8.863281 5.992188 8.835938 5.894531 C 8.835938 5.886719 8.835938 5.875 8.835938 5.863281 L 8.789062 5.847656 C 8.789062 5.84375 8.789062 5.839844 8.789062 5.832031 L 8.710938 5.769531 C 8.640625 5.660156 8.613281 5.523438 8.632812 5.394531 L 8.648438 5.394531 L 8.664062 5.300781 L 8.695312 5.285156 C 8.695312 5.273438 8.695312 5.261719 8.695312 5.253906 L 8.726562 5.234375 L 8.804688 5.140625 L 8.898438 5.109375 C 8.898438 5.105469 8.898438 5.097656 8.898438 5.09375 L 8.945312 5.09375 L 8.945312 5.078125 L 9.023438 5.078125 C 9.097656 5.070312 9.171875 5.082031 9.242188 5.109375 C 9.242188 5.113281 9.242188 5.121094 9.242188 5.125 L 9.273438 5.125 L 9.289062 5.15625 L 9.320312 5.15625 L 9.367188 5.21875 L 9.382812 5.21875 C 9.382812 5.230469 9.382812 5.238281 9.382812 5.25 L 9.414062 5.265625 C 9.414062 5.277344 9.414062 5.285156 9.414062 5.296875 L 9.429688 5.296875 L 9.445312 5.359375 L 9.460938 5.359375 C 9.460938 5.382812 9.460938 5.402344 9.460938 5.421875 L 9.476562 5.421875 C 9.488281 5.523438 9.46875 5.621094 9.414062 5.707031 C 9.414062 5.714844 9.414062 5.726562 9.414062 5.738281 L 9.242188 5.894531 C 9.242188 6.296875 9.242188 6.699219 9.242188 7.105469 L 9.261719 7.105469 C 9.324219 7.199219 9.402344 7.285156 9.496094 7.355469 M 11.074219 7.417969 L 8.121094 8.203125 L 7.605469 7.703125 L 7.601562 5.925781 L 7.585938 5.925781 C 7.582031 5.90625 7.578125 5.882812 7.570312 5.863281 L 7.554688 5.863281 L 7.539062 5.832031 L 7.507812 5.832031 L 7.460938 5.769531 L 7.445312 5.769531 C 7.445312 5.757812 7.445312 5.75 7.445312 5.738281 L 7.414062 5.722656 C 7.414062 5.710938 7.414062 5.703125 7.414062 5.691406 L 7.398438 5.691406 L 7.382812 5.597656 L 7.367188 5.597656 C 7.367188 5.566406 7.367188 5.535156 7.367188 5.503906 C 7.363281 5.308594 7.492188 5.132812 7.679688 5.078125 L 7.773438 5.078125 C 7.898438 5.070312 8.023438 5.121094 8.101562 5.21875 L 8.132812 5.234375 L 8.132812 5.265625 L 8.164062 5.28125 L 8.179688 5.363281 L 8.195312 5.363281 C 8.214844 5.433594 8.21875 5.507812 8.210938 5.582031 L 8.195312 5.582031 C 8.195312 5.601562 8.195312 5.625 8.195312 5.644531 L 8.085938 5.816406 L 8.039062 5.832031 C 8.015625 5.855469 8.003906 5.890625 7.976562 5.910156 L 7.976562 7.515625 L 7.992188 7.515625 L 8.011719 7.578125 L 8.121094 7.671875 L 8.402344 7.953125 L 9.105469 8.675781 L 9.449219 9.003906 M 10.867188 3.664062 L 10.835938 3.632812 C 10.835938 3.621094 10.835938 3.613281 10.835938 3.601562 L 10.820312 3.601562 L 10.773438 3.539062 L 10.726562 3.539062 L 10.726562 3.519531 L 8.304688 3.523438 L 7.710938 3.523438 C 7.621094 3.515625 7.53125 3.519531 7.441406 3.539062 L 7.273438 3.695312 C 7.273438 3.707031 7.273438 3.71875 7.273438 3.730469 L 7.070312 3.917969 L 6.929688 4.074219 L 6.851562 4.136719 L 6.851562 4.167969 L 6.835938 4.167969 L 6.804688 4.214844 C 6.664062 4.339844 6.53125 4.476562 6.414062 4.625 L 6.382812 4.640625 C 6.335938 4.671875 6.308594 4.726562 6.304688 4.78125 C 6.285156 4.835938 6.277344 4.898438 6.289062 4.953125 C 6.289062 5.105469 6.289062 5.257812 6.289062 5.410156 C 6.289062 6.015625 6.289062 6.625 6.289062 7.230469 L 5.757812 7.78125 L 4.605469 8.929688 L 4.214844 9.324219 C 4.164062 9.386719 4.105469 9.445312 4.042969 9.496094 L 0.972656 9.5 C 0.292969 9.5 0.683594 9.121094 0.972656 9.121094 L 3.527344 9.121094 C 3.652344 9.136719 3.777344 9.132812 3.902344 9.105469 L 5.289062 7.6875 L 5.898438 7.089844 L 5.914062 6.902344 C 5.914062 6.765625 5.914062 6.632812 5.914062 6.496094 C 5.914062 5.863281 5.914062 5.226562 5.914062 4.59375 L 5.929688 4.59375 L 5.945312 4.53125 L 6.023438 4.46875 L 6.210938 4.265625 L 6.273438 4.21875 C 6.273438 4.207031 6.273438 4.195312 6.273438 4.1875 L 6.492188 3.980469 L 6.632812 3.824219 L 6.695312 3.777344 L 6.710938 3.730469 L 7.117188 3.335938 L 7.117188 3.304688 L 7.289062 3.148438 L 9.851562 3.144531 L 10.507812 3.144531 C 10.585938 3.15625 10.664062 3.152344 10.742188 3.128906 C 10.800781 3.097656 10.855469 3.054688 10.898438 3.003906 L 10.914062 2.972656 L 10.945312 2.972656 L 10.945312 2.957031 L 11.007812 2.941406 C 11.007812 2.933594 11.007812 2.929688 11.007812 2.925781 L 11.070312 2.925781 L 11.070312 2.910156 C 11.132812 2.890625 11.085938 3.191406 11.070312 3.191406 C 11.070312 3.195312 11.070312 3.203125 11.070312 3.207031 C 11.039062 3.222656 11.015625 3.25 11.007812 3.285156 M 10.492188 6.160156 L 10.523438 6.160156 L 10.539062 6.191406 C 10.617188 6.226562 10.707031 6.191406 10.742188 6.113281 C 10.773438 6.066406 10.78125 6.007812 10.757812 5.957031 L 10.710938 5.925781 L 10.710938 5.910156 L 10.679688 5.910156 L 10.679688 5.894531 C 10.601562 5.867188 10.519531 5.902344 10.476562 5.972656 L 10.460938 5.972656 C 10.460938 6.019531 10.460938 6.066406 10.460938 6.113281 Z M 8.941406 1.355469 L 8.894531 1.417969 L 8.878906 1.417969 C 8.878906 1.429688 8.878906 1.441406 8.878906 1.449219 L 8.582031 1.734375 C 8.539062 1.808594 8.464844 1.859375 8.378906 1.875 C 8.316406 1.894531 8.246094 1.902344 8.175781 1.890625 L 7.660156 1.890625 C 7.589844 1.878906 7.515625 1.882812 7.441406 1.90625 L 7.410156 1.90625 L 7.160156 2.171875 L 6.414062 2.910156 C 6.398438 3.003906 6.394531 3.101562 6.398438 3.195312 L 6.378906 3.195312 C 6.378906 3.210938 6.378906 3.226562 6.378906 3.242188 L 6.367188 3.242188 L 6.335938 3.335938 L 6.242188 3.414062 L 6.226562 3.445312 L 6.132812 3.476562 L 6.132812 3.492188 L 6.070312 3.492188 C 5.917969 3.539062 5.753906 3.484375 5.660156 3.351562 L 5.613281 3.320312 C 5.613281 3.308594 5.613281 3.300781 5.613281 3.289062 L 5.601562 3.289062 C 5.601562 3.277344 5.601562 3.269531 5.601562 3.257812 L 5.585938 3.257812 C 5.585938 3.242188 5.585938 3.226562 5.585938 3.210938 C 5.550781 3.148438 5.539062 3.078125 5.550781 3.007812 L 5.566406 3.007812 L 5.582031 2.914062 L 5.691406 2.757812 L 5.722656 2.757812 L 5.738281 2.726562 L 5.832031 2.695312 L 5.832031 2.679688 L 5.878906 2.679688 L 5.878906 2.660156 L 6.128906 2.660156 C 6.15625 2.625 6.1875 2.59375 6.222656 2.566406 L 6.441406 2.347656 L 7.050781 1.71875 L 7.175781 1.609375 L 7.222656 1.546875 L 7.253906 1.546875 C 7.253906 1.539062 7.253906 1.535156 7.253906 1.53125 C 7.273438 1.523438 7.289062 1.511719 7.300781 1.5 L 8.273438 1.5 L 8.882812 0.902344 C 8.894531 0.8125 8.898438 0.722656 8.894531 0.632812 M 9.210938 5.46875 L 9.195312 5.46875 L 9.195312 5.421875 C 9.167969 5.398438 9.136719 5.375 9.101562 5.359375 C 9.058594 5.339844 9.007812 5.339844 8.960938 5.359375 L 8.929688 5.40625 L 8.914062 5.40625 L 8.898438 5.566406 C 8.945312 5.597656 8.910156 5.585938 8.929688 5.613281 L 8.976562 5.628906 L 8.992188 5.660156 L 9.101562 5.660156 C 9.121094 5.640625 9.101562 5.652344 9.132812 5.644531 C 9.179688 5.59375 9.207031 5.535156 9.210938 5.46875 Z M 2.277344 8.304688 L 2.867188 8.304688 C 2.957031 8.3125 3.046875 8.308594 3.136719 8.289062 C 3.167969 8.265625 3.191406 8.238281 3.214844 8.207031 C 3.285156 8.136719 3.359375 8.0625 3.433594 7.988281 L 4.007812 7.421875 L 4.148438 7.265625 L 4.570312 6.855469 L 4.617188 6.792969 C 4.695312 6.742188 4.757812 6.671875 4.804688 6.589844 C 4.832031 6.503906 4.835938 6.410156 4.820312 6.324219 C 4.820312 6.078125 4.820312 5.832031 4.820312 5.585938 C 4.820312 4.589844 4.820312 3.59375 4.820312 2.601562 C 4.871094 2.515625 4.9375 2.4375 5.019531 2.378906 L 5.472656 1.925781 C 6.117188 1.269531 5.933594 0.898438 5.636719 1.203125 L 4.441406 2.410156 C 4.445312 3.742188 4.445312 5.070312 4.445312 6.402344 C 4.375 6.507812 4.285156 6.605469 4.179688 6.683594 L 3.679688 7.203125 L 3.554688 7.3125 L 3.195312 7.691406 L 3.148438 7.722656 C 3.101562 7.792969 3.039062 7.851562 2.960938 7.894531 C 2.898438 7.917969 2.828125 7.921875 2.757812 7.910156 L 2.242188 7.910156 M 7.945312 5.457031 C 7.929688 5.421875 7.902344 5.390625 7.867188 5.378906 C 7.828125 5.347656 7.777344 5.335938 7.726562 5.347656 C 7.703125 5.363281 7.683594 5.386719 7.664062 5.410156 C 7.632812 5.4375 7.664062 5.417969 7.648438 5.457031 C 7.632812 5.492188 7.632812 5.535156 7.652344 5.574219 C 7.667969 5.609375 7.703125 5.636719 7.742188 5.644531 L 7.742188 5.660156 L 7.835938 5.660156 C 7.863281 5.636719 7.890625 5.609375 7.914062 5.582031 C 7.941406 5.546875 7.953125 5.5 7.945312 5.457031 Z M 3.347656 1.785156 C 3.347656 2.605469 3.347656 3.429688 3.351562 4.25 C 3.351562 4.453125 3.351562 4.660156 3.351562 4.863281 C 3.339844 4.941406 3.34375 5.023438 3.367188 5.097656 C 3.386719 5.140625 3.417969 5.171875 3.460938 5.191406 L 3.570312 5.367188 L 3.570312 5.445312 L 3.585938 5.445312 C 3.585938 5.484375 3.585938 5.527344 3.585938 5.570312 L 3.570312 5.570312 C 3.570312 5.589844 3.570312 5.609375 3.570312 5.632812 L 3.554688 5.632812 C 3.554688 5.648438 3.554688 5.664062 3.554688 5.679688 L 3.539062 5.679688 C 3.539062 5.691406 3.539062 5.699219 3.539062 5.710938 L 3.507812 5.726562 C 3.507812 5.738281 3.507812 5.746094 3.507812 5.757812 L 3.476562 5.773438 L 3.414062 5.851562 L 3.382812 5.851562 L 3.367188 5.882812 L 3.335938 5.882812 C 3.335938 5.890625 3.335938 5.894531 3.335938 5.898438 L 3.289062 5.898438 L 3.289062 5.914062 L 3.226562 5.914062 C 3.226562 5.921875 3.226562 5.925781 3.226562 5.929688 C 3.074219 5.941406 2.925781 5.882812 2.820312 5.773438 C 2.820312 5.765625 2.820312 5.753906 2.820312 5.742188 L 2.789062 5.726562 C 2.789062 5.714844 2.789062 5.707031 2.789062 5.695312 L 2.773438 5.695312 C 2.773438 5.683594 2.773438 5.675781 2.773438 5.664062 L 2.757812 5.664062 C 2.714844 5.414062 2.722656 5.476562 2.742188 5.476562 C 2.746094 5.417969 2.753906 5.359375 2.773438 5.304688 L 2.804688 5.289062 C 2.804688 5.277344 2.804688 5.265625 2.804688 5.257812 L 2.820312 5.257812 C 2.835938 5.238281 2.847656 5.214844 2.851562 5.191406 L 2.882812 5.191406 C 2.90625 5.164062 2.933594 5.140625 2.960938 5.113281 C 2.960938 4.785156 2.960938 4.453125 2.960938 4.125 C 2.960938 3.304688 2.960938 2.480469 2.957031 1.660156 L 2.972656 1.660156 L 2.988281 1.582031 L 3.566406 1.015625 M 6.132812 3.007812 C 6.117188 2.984375 6.09375 2.964844 6.070312 2.960938 C 6.035156 2.929688 5.988281 2.917969 5.945312 2.929688 L 5.945312 2.945312 L 5.894531 2.945312 L 5.847656 3.007812 C 5.761719 3.089844 5.886719 3.289062 6.023438 3.242188 C 6.066406 3.21875 6.101562 3.1875 6.132812 3.148438 C 6.128906 3.101562 6.128906 3.054688 6.128906 3.007812 Z M 3.320312 5.476562 L 3.304688 5.476562 C 3.304688 5.460938 3.304688 5.445312 3.304688 5.429688 C 3.273438 5.394531 3.234375 5.371094 3.195312 5.351562 C 3.195312 5.34375 3.195312 5.339844 3.195312 5.335938 L 3.132812 5.335938 L 3.132812 5.351562 L 3.085938 5.351562 L 3.085938 5.367188 C 3.054688 5.382812 3.03125 5.410156 3.023438 5.445312 L 3.007812 5.445312 C 3.007812 5.488281 3.007812 5.527344 3.007812 5.570312 C 3.027344 5.597656 3.054688 5.621094 3.085938 5.632812 C 3.121094 5.65625 3.164062 5.664062 3.203125 5.652344 C 3.242188 5.640625 3.273438 5.609375 3.289062 5.570312 L 3.304688 5.570312 Z M 2.238281 0.765625 L 0.660156 2.367188 M 2.316406 2.886719 C 2.339844 3.078125 2.246094 3.265625 2.082031 3.371094 C 2.082031 3.710938 2.082031 4.050781 2.082031 4.390625 C 1.972656 4.425781 1.855469 4.4375 1.738281 4.425781 L 1.035156 4.425781 C 1.035156 4.429688 1.035156 4.433594 1.035156 4.441406 C 0.996094 4.457031 0.960938 4.492188 0.941406 4.535156 C 0.832031 4.632812 0.683594 4.679688 0.535156 4.660156 C 0.535156 4.65625 0.535156 4.648438 0.535156 4.644531 L 0.441406 4.628906 L 0.425781 4.597656 L 0.398438 4.597656 L 0.382812 4.566406 L 0.351562 4.566406 C 0.351562 4.5625 0.351562 4.554688 0.351562 4.550781 L 0.304688 4.519531 C 0.304688 4.507812 0.304688 4.5 0.304688 4.488281 L 0.273438 4.472656 L 0.257812 4.410156 L 0.242188 4.410156 C 0.242188 4.398438 0.242188 4.390625 0.242188 4.378906 L 0.226562 4.378906 C 0.226562 4.359375 0.226562 4.335938 0.226562 4.316406 L 0.210938 4.316406 C 0.191406 4.15625 0.25 4 0.363281 3.890625 C 0.527344 3.789062 0.734375 3.789062 0.898438 3.890625 L 0.945312 3.953125 L 0.972656 3.96875 C 0.972656 3.980469 0.972656 3.992188 0.972656 4 L 1.003906 4.015625 C 1.003906 4.023438 1.003906 4.027344 1.003906 4.03125 L 1.195312 4.046875 C 1.355469 4.054688 1.515625 4.050781 1.679688 4.03125 L 1.695312 3.984375 C 1.71875 3.886719 1.726562 3.785156 1.710938 3.6875 C 1.722656 3.578125 1.71875 3.464844 1.691406 3.355469 L 1.601562 3.277344 C 1.511719 3.191406 1.464844 3.070312 1.476562 2.949219 C 1.476562 2.917969 1.476562 2.886719 1.476562 2.855469 C 1.511719 2.734375 1.597656 2.636719 1.710938 2.582031 C 1.824219 2.53125 1.957031 2.535156 2.070312 2.585938 L 2.132812 2.601562 L 2.164062 2.648438 L 2.191406 2.648438 L 2.207031 2.695312 L 2.253906 2.726562 C 2.253906 2.738281 2.253906 2.75 2.253906 2.757812 L 2.269531 2.757812 C 2.273438 2.78125 2.285156 2.804688 2.300781 2.820312 C 2.300781 2.84375 2.300781 2.863281 2.300781 2.882812 L 2.316406 2.882812 Z M 1.507812 6.578125 C 1.574219 6.480469 1.667969 6.402344 1.773438 6.355469 L 1.851562 6.355469 C 1.851562 6.351562 1.851562 6.347656 1.851562 6.339844 L 1.929688 6.339844 C 1.929688 6.347656 1.929688 6.351562 1.929688 6.355469 L 2.023438 6.355469 C 2.023438 6.363281 2.023438 6.367188 2.023438 6.371094 L 2.117188 6.402344 C 2.117188 6.410156 2.117188 6.414062 2.117188 6.417969 L 2.148438 6.417969 L 2.210938 6.496094 L 2.242188 6.511719 C 2.242188 6.523438 2.242188 6.535156 2.242188 6.546875 L 2.273438 6.558594 C 2.316406 6.652344 2.332031 6.757812 2.320312 6.859375 C 2.296875 6.976562 2.222656 7.078125 2.117188 7.136719 C 2.011719 7.199219 1.890625 7.210938 1.773438 7.175781 L 1.726562 7.175781 C 1.726562 7.167969 1.726562 7.164062 1.726562 7.160156 L 1.695312 7.160156 L 1.570312 7.066406 C 1.570312 7.054688 1.570312 7.042969 1.570312 7.03125 L 1.554688 7.03125 L 1.523438 6.984375 L 1.492188 6.984375 C 1.492188 6.980469 1.492188 6.976562 1.492188 6.96875 M 1.769531 2.855469 L 1.753906 2.917969 L 1.738281 2.917969 C 1.730469 2.964844 1.738281 3.011719 1.753906 3.058594 C 1.804688 3.121094 1.882812 3.144531 1.957031 3.121094 L 1.972656 3.089844 C 2.011719 3.058594 2.003906 3.105469 2.019531 3.042969 L 2.035156 3.042969 L 2.050781 2.933594 L 2.035156 2.933594 C 2.035156 2.914062 2.035156 2.898438 2.035156 2.886719 L 1.972656 2.835938 C 1.972656 2.832031 1.972656 2.828125 1.972656 2.820312 L 1.925781 2.820312 C 1.925781 2.816406 1.925781 2.8125 1.925781 2.804688 L 1.863281 2.804688 C 1.863281 2.8125 1.863281 2.816406 1.863281 2.820312 L 1.816406 2.820312 C 1.816406 2.828125 1.816406 2.832031 1.816406 2.835938 Z M 2.054688 6.734375 C 2.039062 6.691406 2.003906 6.65625 1.960938 6.640625 C 1.910156 6.617188 1.855469 6.617188 1.804688 6.640625 L 1.789062 6.671875 L 1.757812 6.6875 L 1.742188 6.75 L 1.726562 6.75 C 1.722656 6.839844 1.792969 6.917969 1.882812 6.921875 C 1.921875 6.929688 1.960938 6.925781 1.992188 6.90625 C 2.03125 6.855469 2.054688 6.796875 2.054688 6.734375 Z M 1.085938 5.304688 C 1.109375 5.273438 1.132812 5.25 1.164062 5.226562 L 1.226562 5.148438 C 1.304688 5.101562 1.398438 5.078125 1.492188 5.085938 L 1.585938 5.085938 C 1.585938 5.089844 1.585938 5.097656 1.585938 5.101562 L 1.632812 5.101562 C 1.632812 5.105469 1.632812 5.113281 1.632812 5.117188 L 1.664062 5.117188 C 1.664062 5.121094 1.664062 5.128906 1.664062 5.132812 L 1.695312 5.132812 L 1.710938 5.164062 L 1.742188 5.164062 L 1.757812 5.195312 L 1.820312 5.242188 C 1.820312 5.253906 1.820312 5.261719 1.820312 5.273438 L 1.851562 5.289062 C 1.851562 5.300781 1.851562 5.3125 1.851562 5.320312 L 1.867188 5.320312 L 1.882812 5.414062 L 1.898438 5.414062 C 1.898438 5.472656 1.898438 5.53125 1.898438 5.589844 L 1.882812 5.589844 C 1.882812 5.609375 1.882812 5.628906 1.882812 5.652344 C 1.808594 5.847656 1.601562 5.960938 1.398438 5.917969 L 1.335938 5.917969 C 1.335938 5.914062 1.335938 5.90625 1.335938 5.902344 L 1.304688 5.902344 C 1.304688 5.898438 1.304688 5.890625 1.304688 5.886719 L 1.273438 5.886719 C 1.273438 5.882812 1.273438 5.875 1.273438 5.871094 L 1.242188 5.871094 L 1.226562 5.839844 L 1.195312 5.839844 C 1.195312 5.832031 1.195312 5.828125 1.195312 5.824219 L 1.132812 5.777344 C 1.132812 5.765625 1.132812 5.753906 1.132812 5.746094 C 1.121094 5.730469 1.082031 5.71875 1.070312 5.699219 M 1.632812 5.460938 L 1.617188 5.460938 C 1.617188 5.453125 1.617188 5.441406 1.617188 5.429688 L 1.601562 5.429688 C 1.601562 5.421875 1.601562 5.410156 1.601562 5.398438 L 1.554688 5.382812 L 1.539062 5.351562 L 1.414062 5.351562 C 1.394531 5.371094 1.414062 5.359375 1.382812 5.367188 L 1.304688 5.476562 C 1.320312 5.539062 1.320312 5.554688 1.320312 5.570312 L 1.351562 5.585938 L 1.398438 5.648438 L 1.445312 5.648438 C 1.503906 5.675781 1.574219 5.644531 1.601562 5.585938 C 1.628906 5.550781 1.640625 5.507812 1.632812 5.460938 Z M 0.804688 4.222656 L 0.742188 4.113281 L 0.710938 4.113281 C 0.628906 4.011719 0.425781 4.15625 0.476562 4.285156 L 0.492188 4.285156 C 0.492188 4.292969 0.492188 4.304688 0.492188 4.316406 L 0.523438 4.332031 L 0.554688 4.378906 C 0.613281 4.402344 0.683594 4.394531 0.742188 4.363281 C 0.769531 4.320312 0.789062 4.269531 0.804688 4.222656 Z M 0.804688 4.222656 "/>
<path style=" stroke:none;fill-rule:evenodd;fill:rgb(100%,100%,100%);fill-opacity:1;" d="M 92.597656 10.140625 L 92.847656 10.394531 C 92.917969 10.433594 92.964844 10.503906 92.972656 10.582031 C 93 10.667969 93.003906 10.761719 92.988281 10.851562 C 92.988281 11.101562 92.988281 11.351562 92.988281 11.601562 C 92.976562 11.703125 92.980469 11.804688 93.007812 11.898438 L 93.007812 11.929688 L 93.054688 11.949219 L 93.054688 11.964844 L 93.132812 12.027344 C 93.203125 12.140625 93.230469 12.273438 93.210938 12.402344 L 93.195312 12.402344 C 93.191406 12.433594 93.183594 12.46875 93.179688 12.5 L 93.148438 12.515625 L 93.148438 12.546875 L 93.117188 12.5625 L 93.039062 12.65625 L 92.945312 12.6875 L 92.945312 12.703125 L 92.898438 12.703125 C 92.898438 12.707031 92.898438 12.710938 92.898438 12.71875 L 92.820312 12.71875 C 92.746094 12.726562 92.671875 12.714844 92.601562 12.6875 L 92.601562 12.671875 L 92.570312 12.671875 L 92.554688 12.640625 L 92.523438 12.640625 L 92.476562 12.578125 L 92.460938 12.578125 L 92.460938 12.546875 L 92.429688 12.53125 L 92.429688 12.5 L 92.414062 12.5 C 92.410156 12.476562 92.402344 12.457031 92.398438 12.433594 L 92.382812 12.433594 L 92.382812 12.371094 L 92.367188 12.371094 C 92.355469 12.273438 92.378906 12.175781 92.429688 12.089844 C 92.429688 12.078125 92.429688 12.070312 92.429688 12.058594 L 92.601562 11.902344 L 92.601562 10.691406 L 92.585938 10.691406 C 92.523438 10.59375 92.441406 10.511719 92.347656 10.441406 M 101.734375 8.316406 C 101.664062 8.316406 101.601562 8.671875 101.53125 8.671875 L 98.316406 8.671875 C 98.191406 8.65625 98.066406 8.660156 97.941406 8.691406 L 96.550781 10.105469 L 95.945312 10.703125 L 95.929688 10.890625 C 95.929688 11.027344 95.929688 11.164062 95.929688 11.300781 C 95.929688 11.933594 95.929688 12.566406 95.929688 13.199219 L 95.914062 13.199219 C 95.910156 13.21875 95.90625 13.242188 95.898438 13.261719 L 95.820312 13.324219 L 95.632812 13.53125 L 95.570312 13.578125 L 95.570312 13.609375 L 95.355469 13.8125 L 95.214844 13.972656 L 95.152344 14.019531 L 95.136719 14.066406 L 94.730469 14.460938 C 94.730469 14.46875 94.730469 14.480469 94.730469 14.492188 C 96.066406 12.59375 93.078125 16.578125 92.410156 14.722656 C 92.335938 14.515625 93.929688 14.4375 93.710938 14.441406 C 93.632812 14.425781 93.550781 14.433594 93.476562 14.457031 C 93.414062 14.484375 93.363281 14.527344 93.320312 14.582031 L 93.304688 14.613281 L 93.273438 14.613281 L 93.273438 14.628906 L 93.210938 14.644531 L 93.210938 14.660156 L 93.148438 14.660156 L 93.148438 14.675781 C 93.066406 14.6875 92.984375 14.679688 92.914062 14.644531 C 92.882812 14.640625 92.859375 14.628906 92.835938 14.613281 L 92.835938 14.597656 C 92.703125 14.527344 92.628906 14.382812 92.644531 14.238281 L 92.644531 14.140625 L 92.660156 14.140625 L 92.660156 14.09375 L 92.679688 14.09375 C 92.6875 14.0625 92.699219 14.03125 92.710938 14 L 92.804688 13.921875 L 92.820312 13.890625 L 92.914062 13.859375 L 92.914062 13.84375 L 92.960938 13.84375 L 92.960938 13.828125 C 93.097656 13.808594 93.238281 13.84375 93.351562 13.921875 L 93.382812 13.953125 L 93.382812 13.984375 L 93.398438 13.984375 L 93.445312 14.046875 L 93.492188 14.046875 L 93.492188 14.0625 C 94.144531 14.0625 92.335938 14.671875 92.988281 14.671875 C 93.144531 14.671875 93.386719 14.273438 93.542969 14.273438 L 94.136719 14.273438 C 94.226562 14.28125 94.316406 14.277344 94.402344 14.257812 L 94.574219 14.097656 L 94.574219 14.066406 L 94.777344 13.878906 L 94.917969 13.71875 L 94.996094 13.65625 L 94.996094 13.625 L 95.011719 13.625 L 95.042969 13.578125 C 95.183594 13.453125 95.3125 13.316406 95.433594 13.171875 L 95.464844 13.15625 C 95.511719 13.121094 95.539062 13.070312 95.542969 13.011719 C 95.5625 12.957031 95.566406 12.898438 95.558594 12.839844 L 95.558594 12.382812 L 95.554688 10.5625 L 96.085938 10.011719 L 97.238281 8.863281 L 97.628906 8.472656 C 97.679688 8.40625 97.734375 8.347656 97.800781 8.296875 C 99.027344 8.296875 100.511719 8.316406 101.734375 8.316406 M 93.722656 9.589844 L 94.238281 10.09375 L 94.242188 11.867188 L 94.257812 11.867188 C 94.261719 11.890625 94.265625 11.910156 94.273438 11.929688 L 94.289062 11.929688 L 94.304688 11.960938 L 94.335938 11.960938 L 94.382812 12.023438 L 94.398438 12.023438 C 94.398438 12.035156 94.398438 12.046875 94.398438 12.054688 L 94.429688 12.070312 L 94.429688 12.101562 L 94.445312 12.101562 C 94.449219 12.136719 94.457031 12.167969 94.460938 12.199219 L 94.476562 12.199219 L 94.476562 12.292969 C 94.480469 12.488281 94.351562 12.664062 94.164062 12.714844 L 94.070312 12.714844 C 93.945312 12.726562 93.820312 12.675781 93.742188 12.574219 L 93.710938 12.558594 L 93.710938 12.527344 L 93.679688 12.511719 C 93.675781 12.484375 93.667969 12.460938 93.664062 12.433594 L 93.648438 12.433594 C 93.628906 12.363281 93.625 12.289062 93.632812 12.214844 L 93.648438 12.214844 L 93.648438 12.152344 L 93.757812 11.976562 L 93.804688 11.960938 C 93.828125 11.941406 93.839844 11.90625 93.867188 11.882812 C 93.867188 11.351562 93.867188 10.816406 93.863281 10.28125 L 93.847656 10.28125 C 93.84375 10.261719 93.839844 10.238281 93.832031 10.21875 L 93.722656 10.125 L 93.441406 9.839844 L 92.738281 9.121094 M 92.914062 14.3125 L 92.929688 14.34375 C 92.976562 14.390625 93.039062 14.414062 93.101562 14.410156 L 93.101562 14.394531 L 93.148438 14.394531 L 93.148438 14.378906 C 93.179688 14.363281 93.203125 14.332031 93.210938 14.296875 C 93.285156 14.21875 93.125 14.046875 93.007812 14.09375 C 92.96875 14.121094 92.9375 14.152344 92.914062 14.1875 C 92.914062 14.230469 92.914062 14.273438 92.914062 14.316406 Z M 94.363281 6.824219 L 94.535156 7.011719 C 94.605469 7.03125 94.679688 7.035156 94.753906 7.027344 L 97.644531 7.027344 C 97.710938 7.039062 97.78125 7.03125 97.847656 7.011719 L 97.878906 7.011719 L 97.925781 6.949219 L 97.9375 6.949219 C 97.945312 6.933594 97.949219 6.917969 97.953125 6.902344 L 98 6.882812 C 98.007812 6.875 98.011719 6.863281 98.015625 6.851562 L 98.046875 6.851562 L 98.046875 6.835938 L 98.109375 6.820312 L 98.109375 6.804688 C 98.207031 6.785156 98.308594 6.785156 98.40625 6.804688 L 98.40625 6.820312 L 98.46875 6.835938 L 98.46875 6.851562 L 98.5 6.851562 L 98.578125 6.945312 L 98.609375 6.960938 C 98.609375 6.972656 98.609375 6.984375 98.609375 6.992188 L 98.640625 7.007812 C 98.648438 7.039062 98.652344 7.070312 98.65625 7.105469 C 98.691406 7.214844 98.675781 7.335938 98.617188 7.4375 C 98.558594 7.539062 98.460938 7.613281 98.347656 7.636719 C 98.234375 7.65625 98.117188 7.632812 98.019531 7.574219 L 98.019531 7.558594 C 98 7.542969 97.980469 7.535156 97.957031 7.527344 L 97.957031 7.496094 L 97.847656 7.402344 L 95.285156 7.40625 L 94.628906 7.40625 C 94.550781 7.417969 94.46875 7.414062 94.394531 7.390625 C 94.3125 7.34375 94.242188 7.28125 94.191406 7.203125 M 95.433594 14.882812 C 95.445312 14.789062 95.453125 14.691406 95.449219 14.597656 L 95.464844 14.597656 L 95.464844 14.550781 L 95.480469 14.550781 C 95.492188 14.519531 95.5 14.488281 95.511719 14.457031 L 95.605469 14.378906 L 95.621094 14.347656 L 95.714844 14.316406 L 95.714844 14.300781 L 95.777344 14.300781 C 95.929688 14.253906 96.09375 14.3125 96.183594 14.441406 L 96.230469 14.472656 L 96.230469 14.503906 L 96.246094 14.503906 C 96.246094 14.515625 96.246094 14.523438 96.246094 14.535156 L 96.261719 14.535156 L 96.261719 14.582031 C 96.292969 14.644531 96.304688 14.71875 96.292969 14.785156 L 96.277344 14.785156 C 96.273438 14.816406 96.265625 14.851562 96.261719 14.882812 L 96.152344 15.039062 L 96.121094 15.039062 C 96.117188 15.046875 96.109375 15.058594 96.105469 15.070312 L 96.011719 15.101562 C 96.011719 15.105469 96.011719 15.113281 96.011719 15.117188 L 95.964844 15.117188 L 95.964844 15.132812 L 95.714844 15.132812 C 95.6875 15.167969 95.65625 15.199219 95.621094 15.226562 L 95.402344 15.449219 M 92.632812 12.324219 L 92.648438 12.324219 L 92.648438 12.371094 C 92.675781 12.398438 92.707031 12.421875 92.742188 12.433594 C 92.789062 12.457031 92.839844 12.457031 92.882812 12.433594 L 92.914062 12.386719 L 92.929688 12.386719 C 92.933594 12.335938 92.941406 12.285156 92.945312 12.230469 C 92.898438 12.199219 92.933594 12.207031 92.914062 12.183594 L 92.867188 12.167969 L 92.851562 12.136719 L 92.742188 12.136719 C 92.722656 12.15625 92.742188 12.144531 92.710938 12.152344 C 92.667969 12.199219 92.640625 12.261719 92.632812 12.324219 Z M 93.503906 8.445312 L 93.519531 8.226562 C 93.59375 8.019531 93.808594 7.90625 94.019531 7.957031 L 94.082031 7.957031 L 94.082031 7.972656 L 94.144531 7.988281 L 94.144531 8.003906 L 94.175781 8.003906 L 94.191406 8.035156 L 94.285156 8.113281 C 94.296875 8.144531 94.304688 8.175781 94.316406 8.207031 L 94.332031 8.207031 C 94.332031 8.222656 94.332031 8.238281 94.332031 8.253906 L 94.347656 8.253906 C 94.347656 8.339844 94.347656 8.421875 94.347656 8.507812 L 94.363281 8.507812 L 94.363281 8.539062 L 94.550781 8.710938 L 95.050781 8.710938 C 95.113281 8.71875 95.175781 8.714844 95.238281 8.695312 C 95.316406 8.644531 95.386719 8.582031 95.441406 8.503906 C 95.441406 8.421875 95.441406 8.339844 95.441406 8.253906 C 95.472656 8.136719 95.550781 8.042969 95.660156 7.988281 C 95.765625 7.933594 95.890625 7.925781 96.003906 7.972656 L 96.050781 7.972656 L 96.066406 8.003906 L 96.097656 8.003906 L 96.113281 8.035156 L 96.144531 8.035156 L 96.175781 8.066406 L 96.175781 8.097656 L 96.222656 8.128906 L 96.222656 8.160156 L 96.238281 8.160156 C 96.242188 8.179688 96.25 8.199219 96.253906 8.222656 L 96.269531 8.222656 L 96.269531 8.285156 L 96.285156 8.285156 C 96.304688 8.382812 96.28125 8.484375 96.222656 8.566406 L 96.222656 8.597656 L 96.175781 8.628906 C 96.171875 8.644531 96.164062 8.660156 96.160156 8.675781 L 96.128906 8.675781 L 96.097656 8.726562 L 96.035156 8.742188 L 96.035156 8.757812 L 96.003906 8.757812 L 96.003906 8.773438 C 95.933594 8.800781 95.765625 8.761719 95.707031 8.789062 L 95.378906 9.105469 L 94.675781 9.105469 C 94.585938 9.117188 94.496094 9.113281 94.410156 9.089844 C 94.332031 9.054688 94.269531 9 94.222656 8.929688 L 94.128906 8.851562 L 94.082031 8.789062 L 93.847656 8.789062 L 93.847656 8.773438 L 93.785156 8.773438 L 93.785156 8.757812 L 93.722656 8.742188 L 93.722656 8.726562 L 93.691406 8.726562 L 93.660156 8.679688 L 93.628906 8.679688 C 93.625 8.664062 93.617188 8.648438 93.613281 8.632812 L 93.566406 8.601562 L 93.566406 8.570312 L 93.550781 8.570312 C 93.546875 8.546875 93.535156 8.527344 93.519531 8.507812 C 93.519531 8.488281 93.519531 8.464844 93.519531 8.445312 Z M 94.050781 8.492188 C 94.054688 8.46875 94.0625 8.449219 94.066406 8.429688 L 94.082031 8.429688 C 94.078125 8.375 94.070312 8.324219 94.066406 8.269531 C 94.011719 8.226562 93.945312 8.207031 93.878906 8.207031 L 93.785156 8.289062 L 93.785156 8.335938 C 93.761719 8.394531 93.789062 8.464844 93.847656 8.492188 C 93.875 8.523438 93.855469 8.492188 93.894531 8.507812 C 93.945312 8.523438 94.003906 8.515625 94.050781 8.492188 Z M 102.460938 9.753906 L 102.460938 9.816406 L 102.445312 9.816406 L 102.445312 9.863281 L 102.429688 9.863281 L 102.429688 9.894531 L 102.398438 9.910156 L 102.398438 9.941406 L 102.367188 9.957031 L 102.304688 10.035156 L 102.273438 10.035156 L 102.257812 10.066406 L 102.226562 10.066406 L 102.226562 10.082031 L 102.179688 10.082031 C 102.121094 10.113281 102.054688 10.125 101.992188 10.113281 L 101.992188 10.097656 L 101.914062 10.097656 L 101.914062 10.082031 L 101.882812 10.082031 L 101.882812 10.066406 L 101.851562 10.066406 L 101.726562 9.972656 C 101.726562 9.964844 101.726562 9.953125 101.726562 9.941406 L 101.710938 9.941406 L 101.679688 9.894531 L 101.648438 9.894531 L 101.648438 9.878906 L 99.601562 9.882812 L 99.085938 9.882812 C 99.015625 9.871094 98.945312 9.875 98.882812 9.898438 C 98.804688 9.941406 98.742188 10 98.695312 10.070312 L 98.648438 10.101562 L 98.289062 10.480469 L 98.164062 10.589844 L 97.664062 11.109375 C 97.558594 11.1875 97.472656 11.285156 97.398438 11.390625 L 97.402344 14.933594 C 97.402344 15.082031 97.402344 15.230469 97.402344 15.382812 C 96.707031 16.089844 97.53125 15.550781 96.835938 16.257812 C 96.632812 16.457031 97.355469 16.269531 97.148438 16.46875 C 97.148438 16.554688 97.019531 15.886719 97.019531 15.96875 L 97.003906 15.96875 C 97 16 96.996094 16.03125 96.988281 16.0625 L 96.863281 16.222656 C 96.703125 16.324219 96.496094 16.324219 96.332031 16.222656 L 96.316406 16.191406 L 96.253906 16.144531 L 96.253906 16.113281 L 96.222656 16.097656 C 96.21875 16.074219 96.207031 16.050781 96.191406 16.035156 L 96.191406 15.972656 L 96.175781 15.972656 C 96.132812 15.738281 96.273438 15.511719 96.503906 15.453125 L 96.753906 15.453125 C 97.398438 14.796875 95.726562 16.527344 96.371094 15.871094 L 96.824219 15.414062 C 96.90625 15.355469 96.976562 15.28125 97.027344 15.195312 C 97.027344 15.089844 97.027344 14.988281 97.027344 14.886719 C 97.027344 13.992188 97.023438 13.101562 97.023438 12.210938 C 97.023438 11.964844 97.023438 11.71875 97.023438 11.472656 C 97.007812 11.382812 97.015625 11.292969 97.039062 11.203125 C 97.085938 11.125 97.148438 11.054688 97.226562 11 L 97.273438 10.9375 L 97.695312 10.527344 L 97.835938 10.371094 L 98.414062 9.804688 C 98.484375 9.734375 98.558594 9.660156 98.628906 9.585938 C 98.652344 9.554688 98.679688 9.527344 98.707031 9.507812 C 98.796875 9.488281 98.886719 9.480469 98.976562 9.492188 L 99.570312 9.492188 L 101.664062 9.488281 C 101.730469 9.390625 101.824219 9.316406 101.929688 9.265625 L 102.164062 9.265625 L 102.164062 9.285156 L 102.210938 9.285156 L 102.210938 9.300781 L 102.304688 9.328125 L 102.367188 9.40625 L 102.398438 9.421875 L 102.398438 9.453125 L 102.429688 9.472656 M 93.898438 12.339844 C 93.914062 12.375 93.941406 12.402344 93.976562 12.417969 C 94.015625 12.449219 94.070312 12.460938 94.117188 12.449219 C 94.140625 12.429688 94.160156 12.410156 94.179688 12.386719 C 94.210938 12.355469 94.179688 12.378906 94.195312 12.339844 C 94.210938 12.300781 94.210938 12.257812 94.195312 12.222656 C 94.175781 12.183594 94.140625 12.160156 94.101562 12.148438 L 94.101562 12.136719 L 94.007812 12.136719 C 93.980469 12.160156 93.953125 12.183594 93.929688 12.214844 C 93.902344 12.25 93.890625 12.296875 93.898438 12.339844 Z M 96.441406 15.925781 C 96.457031 15.960938 96.484375 15.988281 96.519531 16.003906 C 96.59375 16.089844 96.734375 15.984375 96.753906 15.925781 L 96.753906 15.828125 L 96.738281 15.828125 L 96.738281 15.796875 C 96.664062 15.71875 96.683594 15.75 96.644531 15.734375 C 96.59375 15.71875 96.539062 15.722656 96.488281 15.75 C 96.457031 15.804688 96.441406 15.863281 96.441406 15.925781 Z M 98.496094 16.007812 C 98.496094 15.660156 98.496094 15.308594 98.496094 14.960938 C 98.496094 14.488281 98.496094 14.015625 98.496094 13.542969 L 98.496094 12.929688 C 98.507812 12.851562 98.503906 12.773438 98.480469 12.695312 C 98.460938 12.652344 98.425781 12.621094 98.386719 12.601562 L 98.277344 12.429688 C 98.277344 12.402344 98.277344 12.375 98.277344 12.351562 L 98.261719 12.351562 C 98.261719 12.308594 98.261719 12.265625 98.261719 12.222656 L 98.277344 12.222656 L 98.277344 12.160156 L 98.292969 12.160156 L 98.292969 12.113281 L 98.308594 12.113281 L 98.308594 12.082031 L 98.339844 12.066406 L 98.339844 12.035156 L 98.371094 12.019531 L 98.433594 11.941406 L 98.464844 11.941406 L 98.480469 11.910156 L 98.511719 11.910156 L 98.511719 11.894531 L 98.558594 11.894531 C 98.558594 11.890625 98.558594 11.882812 98.558594 11.878906 L 98.617188 11.878906 L 98.617188 11.863281 C 98.769531 11.851562 98.917969 11.910156 99.023438 12.019531 L 99.023438 12.050781 L 99.054688 12.066406 L 99.054688 12.097656 L 99.070312 12.097656 L 99.070312 12.128906 L 99.085938 12.128906 C 99.097656 12.191406 99.109375 12.253906 99.117188 12.316406 L 99.101562 12.316406 C 99.101562 12.375 99.089844 12.433594 99.070312 12.488281 L 99.039062 12.507812 L 99.039062 12.539062 L 99.023438 12.539062 C 99.007812 12.554688 99 12.578125 98.992188 12.601562 L 98.960938 12.601562 C 98.9375 12.628906 98.910156 12.652344 98.882812 12.679688 C 98.882812 13.007812 98.882812 13.339844 98.882812 13.667969 C 98.882812 14.09375 98.886719 14.515625 98.886719 14.941406 L 98.886719 16.132812 L 98.871094 16.132812 M 95.714844 14.789062 C 95.726562 14.8125 95.75 14.828125 95.777344 14.835938 C 95.8125 14.863281 95.859375 14.875 95.902344 14.867188 L 95.902344 14.851562 L 95.949219 14.851562 L 95.996094 14.785156 C 96.085938 14.703125 95.960938 14.503906 95.824219 14.550781 C 95.78125 14.574219 95.742188 14.605469 95.714844 14.644531 C 95.714844 14.691406 95.714844 14.742188 95.714844 14.789062 Z M 95.738281 8.488281 C 95.789062 8.503906 95.84375 8.515625 95.894531 8.519531 L 95.894531 8.503906 L 95.941406 8.503906 L 95.988281 8.441406 C 96.082031 8.355469 95.941406 8.148438 95.800781 8.207031 C 95.765625 8.234375 95.734375 8.265625 95.707031 8.300781 C 95.707031 8.363281 95.71875 8.429688 95.738281 8.488281 Z M 98.097656 7.261719 C 98.125 7.300781 98.160156 7.335938 98.207031 7.355469 C 98.207031 7.359375 98.207031 7.367188 98.207031 7.371094 L 98.300781 7.371094 L 98.300781 7.355469 L 98.347656 7.355469 C 98.351562 7.34375 98.355469 7.335938 98.363281 7.324219 L 98.394531 7.308594 L 98.410156 7.152344 C 98.390625 7.128906 98.371094 7.105469 98.347656 7.089844 C 98.316406 7.058594 98.339844 7.089844 98.300781 7.074219 C 98.179688 7.023438 98.160156 7.113281 98.097656 7.167969 C 98.097656 7.199219 98.097656 7.230469 98.097656 7.261719 Z M 98.523438 12.316406 L 98.539062 12.316406 L 98.539062 12.367188 C 98.574219 12.398438 98.609375 12.425781 98.652344 12.445312 L 98.652344 12.457031 L 98.714844 12.457031 L 98.714844 12.445312 L 98.757812 12.445312 L 98.757812 12.425781 C 98.792969 12.410156 98.8125 12.382812 98.824219 12.347656 L 98.835938 12.347656 C 98.835938 12.308594 98.835938 12.265625 98.835938 12.222656 C 98.816406 12.195312 98.789062 12.171875 98.757812 12.160156 C 98.722656 12.136719 98.679688 12.128906 98.640625 12.140625 C 98.601562 12.152344 98.570312 12.183594 98.554688 12.222656 L 98.539062 12.222656 C 98.535156 12.253906 98.53125 12.285156 98.523438 12.316406 Z M 101.1875 15.425781 L 102.214844 14.402344 M 101.308594 13.132812 L 101.449219 13.195312 C 101.453125 13.203125 101.460938 13.214844 101.464844 13.226562 L 101.496094 13.226562 L 101.496094 13.242188 L 101.542969 13.273438 L 101.542969 13.304688 L 101.574219 13.320312 C 101.578125 13.339844 101.585938 13.359375 101.589844 13.382812 L 101.605469 13.382812 L 101.605469 13.414062 L 101.621094 13.414062 L 101.621094 13.476562 L 101.636719 13.476562 C 101.65625 13.636719 101.597656 13.792969 101.480469 13.902344 M 99.777344 15.207031 L 99.714844 15.191406 L 99.683594 15.144531 L 99.652344 15.144531 C 99.648438 15.128906 99.644531 15.113281 99.636719 15.097656 L 99.589844 15.066406 L 99.589844 15.03125 L 99.574219 15.03125 M 102.199219 11.214844 L 100.335938 11.214844 C 100.269531 11.3125 100.175781 11.390625 100.070312 11.4375 L 99.992188 11.4375 L 99.992188 11.453125 L 99.914062 11.453125 L 99.914062 11.4375 L 99.820312 11.4375 L 99.820312 11.421875 L 99.726562 11.390625 L 99.726562 11.375 L 99.695312 11.375 L 99.632812 11.296875 L 99.601562 11.28125 L 99.601562 11.25 L 99.570312 11.234375 C 99.527344 11.140625 99.511719 11.035156 99.523438 10.933594 C 99.546875 10.816406 99.621094 10.714844 99.726562 10.65625 C 99.832031 10.59375 99.957031 10.582031 100.070312 10.617188 L 100.117188 10.617188 L 100.117188 10.632812 L 100.148438 10.632812 L 100.273438 10.730469 C 100.273438 10.738281 100.273438 10.75 100.273438 10.761719 L 100.289062 10.761719 L 100.320312 10.808594 L 100.351562 10.808594 L 100.351562 10.824219 L 102.179688 10.820312 M 99.789062 11.058594 C 99.808594 11.101562 99.839844 11.136719 99.882812 11.152344 C 99.933594 11.175781 99.988281 11.175781 100.039062 11.152344 L 100.054688 11.121094 L 100.085938 11.105469 C 100.089844 11.085938 100.097656 11.0625 100.101562 11.042969 L 100.117188 11.042969 C 100.121094 10.953125 100.050781 10.875 99.960938 10.871094 C 99.921875 10.859375 99.882812 10.867188 99.851562 10.886719 C 99.8125 10.933594 99.789062 10.996094 99.789062 11.058594 Z M 102.304688 12.484375 L 100.757812 12.488281 C 100.738281 12.515625 100.710938 12.542969 100.679688 12.566406 L 100.617188 12.644531 C 100.539062 12.691406 100.445312 12.714844 100.351562 12.707031 L 100.257812 12.707031 L 100.257812 12.691406 L 100.210938 12.691406 L 100.210938 12.675781 L 100.179688 12.675781 L 100.179688 12.660156 L 100.148438 12.660156 L 100.132812 12.628906 L 100.101562 12.628906 L 100.085938 12.597656 L 100.023438 12.550781 L 100.023438 12.519531 L 99.992188 12.503906 L 99.992188 12.472656 L 99.976562 12.472656 C 99.972656 12.441406 99.96875 12.410156 99.960938 12.378906 L 99.945312 12.378906 C 99.945312 12.320312 99.945312 12.265625 99.945312 12.207031 L 99.960938 12.207031 C 99.960938 12.1875 99.960938 12.164062 99.960938 12.144531 C 100.035156 11.949219 100.242188 11.835938 100.449219 11.875 L 100.507812 11.875 L 100.507812 11.890625 L 100.539062 11.890625 L 100.539062 11.90625 L 100.570312 11.90625 L 100.570312 11.921875 L 100.601562 11.921875 L 100.617188 11.953125 L 100.648438 11.953125 L 100.648438 11.96875 L 100.710938 12.015625 L 100.710938 12.046875 C 100.722656 12.066406 100.757812 12.078125 100.773438 12.097656 L 102.28125 12.09375 M 100.210938 12.332031 L 100.226562 12.332031 L 100.226562 12.363281 L 100.242188 12.363281 L 100.242188 12.394531 L 100.289062 12.410156 L 100.308594 12.441406 L 100.433594 12.441406 C 100.449219 12.421875 100.433594 12.433594 100.464844 12.425781 L 100.539062 12.316406 C 100.523438 12.253906 100.523438 12.238281 100.523438 12.222656 L 100.492188 12.207031 L 100.445312 12.144531 L 100.398438 12.144531 C 100.339844 12.117188 100.269531 12.144531 100.242188 12.207031 C 100.214844 12.242188 100.207031 12.289062 100.210938 12.332031 Z M 101.882812 9.722656 C 101.921875 9.789062 101.992188 9.835938 102.070312 9.847656 L 102.070312 9.832031 L 102.148438 9.816406 C 102.183594 9.769531 102.207031 9.714844 102.210938 9.660156 L 102.195312 9.660156 C 102.1875 9.632812 102.183594 9.605469 102.179688 9.582031 C 102.167969 9.570312 102.15625 9.5625 102.148438 9.550781 L 102.117188 9.550781 L 102.117188 9.535156 L 101.960938 9.550781 C 101.914062 9.597656 101.886719 9.65625 101.882812 9.722656 Z M 94.148438 14.9375 "/>
<path style=" stroke:none;fill-rule:evenodd;fill:rgb(100%,100%,100%);fill-opacity:1;" d="M -0.015625 16.753906 L 2.570312 16.753906 L 2.570312 9.523438 L 6.867188 9.523438 L 10.417969 16.753906 L 13.363281 16.753906 L 9.378906 9.183594 C 11.40625 8.550781 12.710938 7.046875 12.710938 4.742188 C 12.710938 1.804688 10.488281 -0.015625 7.324219 -0.015625 L -0.015625 -0.015625 Z M 2.59375 7.242188 L 2.59375 2.238281 L 7.324219 2.238281 C 9.113281 2.238281 10.152344 3.1875 10.152344 4.765625 C 10.152344 6.246094 9.257812 7.167969 7.566406 7.242188 Z M 25.582031 10.296875 C 25.582031 7.046875 23.914062 4.0625 20.195312 4.0625 C 16.429688 4.0625 14.496094 7.046875 14.496094 10.589844 C 14.496094 14.183594 16.644531 16.972656 20.507812 16.972656 C 22.273438 16.972656 23.769531 16.441406 25.21875 15.03125 L 23.601562 13.601562 C 22.78125 14.378906 21.6875 14.804688 20.558594 14.789062 C 18.382812 14.789062 17.175781 13.550781 17.007812 11.246094 L 25.507812 11.246094 C 25.566406 10.933594 25.589844 10.617188 25.582031 10.300781 Z M 20.148438 6.222656 C 22.078125 6.222656 22.996094 7.582031 23.09375 9.328125 L 17.007812 9.304688 C 17.226562 7.3125 18.386719 6.222656 20.148438 6.222656 Z M 32.4375 17 C 35.238281 17 37.390625 15.566406 37.390625 13.042969 C 37.390625 10.542969 35.382812 9.863281 33.332031 9.351562 C 31.59375 8.914062 29.878906 8.574219 30 7.457031 C 30.046875 6.535156 31.109375 6 32.535156 6.074219 C 33.757812 6.101562 34.90625 6.679688 35.652344 7.652344 L 36.976562 6.195312 C 35.847656 4.800781 34.136719 4.007812 32.34375 4.058594 C 29.6875 4.058594 27.65625 5.296875 27.65625 7.773438 C 27.65625 10.246094 29.832031 10.828125 31.859375 11.292969 C 33.574219 11.703125 34.972656 11.996094 34.949219 13.28125 C 34.925781 14.496094 33.644531 15.007812 32.222656 14.957031 C 30.78125 14.953125 29.445312 14.199219 28.695312 12.96875 L 27.175781 14.425781 C 28.164062 15.90625 30.242188 17 32.4375 17 Z M 50.308594 10.300781 C 50.308594 7.046875 48.640625 4.0625 44.921875 4.0625 C 41.15625 4.0625 39.222656 7.046875 39.222656 10.589844 C 39.222656 14.183594 41.375 16.972656 45.234375 16.972656 C 47 16.972656 48.496094 16.441406 49.945312 15.03125 L 48.328125 13.601562 C 47.507812 14.378906 46.414062 14.804688 45.285156 14.789062 C 43.113281 14.789062 41.902344 13.550781 41.734375 11.246094 L 50.234375 11.246094 C 50.292969 10.933594 50.316406 10.617188 50.308594 10.300781 Z M 44.875 6.222656 C 46.804688 6.222656 47.722656 7.582031 47.820312 9.328125 L 41.734375 9.304688 C 41.953125 7.3125 43.113281 6.222656 44.875 6.222656 Z M 56.34375 16.730469 L 58.589844 16.730469 L 58.589844 14.71875 L 57.308594 14.71875 C 56.175781 14.71875 55.765625 14.230469 55.765625 12.894531 L 55.765625 6.097656 L 58.78125 6.097656 L 58.78125 4.300781 L 55.765625 4.300781 L 55.765625 -0.015625 L 53.253906 -0.015625 L 53.253906 4.304688 L 51.441406 4.304688 L 51.441406 6.101562 L 53.253906 6.101562 L 53.253906 13.480469 C 53.253906 15.617188 54.292969 16.730469 56.34375 16.730469 Z M 67.015625 16.730469 L 76.75 16.730469 L 76.75 14.449219 L 69.625 14.449219 L 69.625 -0.015625 L 67.015625 -0.015625 Z M 83.605469 4.0625 C 81.191406 4.0625 79.667969 4.984375 78.488281 6.5625 L 80.273438 7.800781 C 81.140625 6.683594 82.109375 6.148438 83.726562 6.148438 C 85.464844 6.148438 86.453125 6.753906 86.480469 8.238281 C 83.96875 8.964844 81.890625 9.449219 80.46875 10.15625 C 79.042969 10.859375 78.195312 11.898438 78.195312 13.480469 C 78.195312 15.640625 79.789062 17 82.277344 17 C 83.605469 17 85.417969 16.269531 86.480469 15.226562 L 86.480469 16.730469 L 88.773438 16.730469 L 88.773438 8.015625 C 88.773438 5.324219 86.429688 4.0625 83.605469 4.0625 Z M 82.445312 14.8125 C 81.527344 14.8125 80.851562 14.304688 80.851562 13.355469 C 80.851562 12.605469 81.335938 12.09375 82.15625 11.707031 C 83.121094 11.246094 84.835938 10.710938 86.480469 10.175781 L 86.480469 12.75 C 85.367188 14.132812 83.992188 14.8125 82.445312 14.8125 Z M 98.625 4.0625 C 96.742188 4.0625 95.414062 4.863281 94.566406 5.929688 L 94.542969 5.929688 L 94.542969 -0.015625 L 92.03125 -0.015625 L 92.03125 16.730469 L 94.496094 16.730469 L 94.496094 15.152344 L 94.570312 15.152344 C 95.367188 16.199219 96.71875 17 98.601562 17 C 102.199219 17 103.988281 14.257812 103.988281 10.519531 C 103.984375 6.804688 102.222656 4.0625 98.625 4.0625 Z M 97.875 14.8125 C 95.777344 14.8125 94.449219 13.1875 94.449219 10.492188 C 94.449219 7.921875 95.777344 6.269531 97.875 6.269531 C 100.265625 6.269531 101.449219 7.824219 101.449219 10.492188 C 101.449219 13.285156 100.265625 14.8125 97.875 14.8125 Z M 97.875 14.8125 "/>
</g>
</svg>
