<?xml version="1.0" encoding="UTF-8"?>
<svg xmlns="http://www.w3.org/2000/svg" viewBox="0 0 1920 1080" width="1920" height="1080">
  <defs>
    <style>
      .circuit-line { fill: none; stroke: #333; stroke-width: 2; stroke-linecap: round; stroke-linejoin: round; }
      .circuit-fill { fill: #333; }
      .circuit-dot { fill: #333; }
      .bg { fill: #f5f5f5; }
    </style>
  </defs>
  
  <!-- Background -->
  <rect class="bg" width="1920" height="1080"/>
  
  <!-- Top left vertical lines -->
  <line class="circuit-line" x1="80" y1="0" x2="80" y2="120"/>
  <line class="circuit-line" x1="180" y1="0" x2="180" y2="80"/>
  <line class="circuit-line" x1="240" y1="0" x2="240" y2="140"/>
  <line class="circuit-line" x1="260" y1="0" x2="260" y2="100"/>
  <line class="circuit-line" x1="290" y1="0" x2="290" y2="160"/>
  <line class="circuit-line" x1="320" y1="0" x2="320" y2="90"/>
  <line class="circuit-line" x1="350" y1="0" x2="350" y2="130"/>
  <line class="circuit-line" x1="400" y1="0" x2="400" y2="180"/>
  
  <!-- Connection dots on vertical lines -->
  <circle class="circuit-dot" cx="240" cy="95" r="6"/>
  <circle class="circuit-dot" cx="290" cy="110" r="4"/>
  <circle class="circuit-dot" cx="320" cy="90" r="4"/>
  <circle class="circuit-dot" cx="260" cy="130" r="8"/>
  <circle class="circuit-dot" cx="350" cy="165" r="4"/>
  <circle class="circuit-dot" cx="400" cy="140" r="4"/>
  
  <!-- Left side elements -->
  <circle class="circuit-line" cx="80" cy="120" r="4"/>
  <circle class="circuit-line" cx="140" cy="200" r="25"/>
  <circle class="circuit-line" cx="140" cy="200" r="15"/>
  
  <!-- Top horizontal connections -->
  <path class="circuit-line" d="M 80,120 L 180,120 L 180,200 L 240,200"/>
  <path class="circuit-line" d="M 240,200 L 460,200 L 460,280"/>
  
  <!-- Left vertical section -->
  <line class="circuit-line" x1="80" y1="120" x2="80" y2="600"/>
  <circle class="circuit-line" cx="80" cy="120" r="4"/>
  <line class="circuit-line" x1="30" y1="460" x2="80" y2="460"/>
  <circle class="circuit-dot" cx="30" cy="460" r="5"/>
  
  <!-- Center-left rectangular frame -->
  <rect class="circuit-line" x="370" y="270" width="280" height="180" rx="10"/>
  <line class="circuit-line" x1="400" y1="350" x2="400" y2="600"/>
  <circle class="circuit-dot" cx="400" cy="600" r="5"/>
  <circle class="circuit-line" cx="560" cy="360" r="8"/>
  <circle class="circuit-dot" cx="480" cy="590" r="5"/>
  
  <!-- Center rectangular sections -->
  <rect class="circuit-line" x="800" y="140" width="180" height="140" rx="5"/>
  <rect class="circuit-line" x="1000" y="160" width="140" height="120" rx="5"/>
  
  <!-- Circles in center rectangles -->
  <circle class="circuit-line" cx="890" cy="190" r="25"/>
  <circle class="circuit-line" cx="1070" cy="200" r="20"/>
  
  <!-- Top right curved paths -->
  <path class="circuit-line" d="M 700,40 L 1200,40 L 1200,80 L 1350,80"/>
  <path class="circuit-line" d="M 1350,80 L 1350,200 Q 1320,220 1300,200"/>
  
  <!-- Large diagonal element -->
  <path class="circuit-line" d="M 680,300 Q 750,280 820,340 L 1100,580" stroke-width="4"/>
  <path class="circuit-line" d="M 820,340 L 850,310 L 880,330 L 850,350 Z"/>
  
  <!-- Right side wavy lines -->
  <path class="circuit-line" d="M 1320,220 Q 1340,240 1360,220 Q 1380,240 1400,220 Q 1420,240 1440,220 Q 1460,240 1480,220 Q 1500,240 1520,220 Q 1540,240 1560,220 Q 1580,240 1600,220"/>
  
  <!-- Bottom wavy section -->
  <path class="circuit-line" d="M 1320,420 Q 1340,440 1360,420 Q 1380,440 1400,420 Q 1420,440 1440,420"/>
  
  <!-- Connection nodes -->
  <circle class="circuit-dot" cx="750" cy="130" r="5"/>
  <circle class="circuit-dot" cx="920" cy="630" r="7"/>
  <circle class="circuit-dot" cx="560" cy="700" r="6"/>
  <circle class="circuit-dot" cx="800" cy="600" r="5"/>
  
  <!-- Bottom horizontal paths -->
  <path class="circuit-line" d="M 50,740 L 150,740 L 150,780 L 370,780"/>
  <circle class="circuit-dot" cx="170" cy="760" r="3"/>
  <circle class="circuit-dot" cx="190" cy="760" r="3"/>
  <circle class="circuit-dot" cx="210" cy="760" r="3"/>
  
  <!-- Bottom curves and connections -->
  <path class="circuit-line" d="M 370,780 Q 390,800 370,820"/>
  <circle class="circuit-line" cx="370" cy="800" r="20"/>
  
  <!-- Connector symbols -->
  <rect class="circuit-line" x="950" y="620" width="40" height="25" rx="3"/>
  <circle class="circuit-dot" cx="965" cy="632" r="3"/>
  <circle class="circuit-dot" cx="975" cy="632" r="3"/>
  <circle class="circuit-dot" cx="985" cy="632" r="3"/>
  
  <!-- Vertical parallel lines right side -->
  <line class="circuit-line" x1="1300" y1="350" x2="1300" y2="550"/>
  <line class="circuit-line" x1="1310" y1="350" x2="1310" y2="550"/>
  <line class="circuit-line" x1="1320" y1="350" x2="1320" y2="550"/>
  <line class="circuit-line" x1="1330" y1="350" x2="1330" y2="550"/>
  <line class="circuit-line" x1="1340" y1="350" x2="1340" y2="550"/>
  <line class="circuit-line" x1="1350" y1="350" x2="1350" y2="550"/>
  <line class="circuit-line" x1="1360" y1="350" x2="1360" y2="550"/>
  
  <!-- Decorative circles -->
  <circle class="circuit-line" cx="990" cy="150" r="8"/>
  <circle class="circuit-line" cx="760" cy="130" r="15"/>
  <circle class="circuit-line" cx="630" cy="190" r="20"/>
  <circle class="circuit-dot" cx="1240" cy="570" r="6"/>
  <circle class="circuit-dot" cx="1380" cy="260" r="5"/>
  
  <!-- Additional decorative elements -->
  <path class="circuit-line" d="M 1050,490 L 1080,490 Q 1100,490 1100,510 L 1100,530"/>
  <path class="circuit-line" d="M 120,330 L 130,340 L 120,350 L 130,360 L 120,370" stroke-dasharray="3,3"/>
  
  <!-- More connection paths -->
  <path class="circuit-line" d="M 640,800 L 680,800 L 680,840 L 1920,840"/>
  <circle class="circuit-dot" cx="645" cy="800" r="3"/>
  <circle class="circuit-dot" cx="655" cy="800" r="3"/>
  <circle class="circuit-dot" cx="665" cy="800" r="3"/>
  
  <!-- Top right corner element -->
  <path class="circuit-line" d="M 1600,0 L 1600,80 Q 1650,100 1700,80 L 1920,80"/>
  <circle class="circuit-line" cx="1050" cy="50" r="15"/>
  
  <!-- Bottom right decorative -->
  <path class="circuit-line" d="M 1820,850 Q 1840,830 1860,850 L 1900,890"/>
  
</svg>