<?xml version="1.0" encoding="UTF-8"?>
<svg xmlns="http://www.w3.org/2000/svg" viewBox="0 0 1920 1080" width="1920" height="1080">
  <defs>
    <style>
      .circuit-line { fill: none; stroke: #333; stroke-width: 2; stroke-linecap: round; stroke-linejoin: round; }
      .circuit-fill { fill: #333; }
      .circuit-dot { fill: #333; }
      .bg { fill: #f5f5f5; }
    </style>
  </defs>
  
  <!-- Background -->
  <rect class="bg" width="1920" height="1080"/>
  
  <!-- Top left vertical lines -->
  <line class="circuit-line" x1="80" y1="0" x2="80" y2="120"/>
  <line class="circuit-line" x1="180" y1="0" x2="180" y2="80"/>
  <line class="circuit-line" x1="240" y1="0" x2="240" y2="140"/>
  <line class="circuit-line" x1="260" y1="0" x2="260" y2="100"/>
  <line class="circuit-line" x1="290" y1="0" x2="290" y2="160"/>
  <line class="circuit-line" x1="320" y1="0" x2="320" y2="90"/>
  <line class="circuit-line" x1="350" y1="0" x2="350" y2="130"/>
  <line class="circuit-line" x1="400" y1="0" x2="400" y2="180"/>
  
  <!-- Connection dots on vertical lines -->
  <circle class="circuit-dot" cx="240" cy="95" r="6"/>
  <circle class="circuit-dot" cx="290" cy="110" r="4"/>
  <circle class="circuit-dot" cx="320" cy="90" r="4"/>
  <circle class="circuit-dot" cx="260" cy="130" r="8"/>
  <circle class="circuit-dot" cx="350" cy="165" r="4"/>
  <circle class="circuit-dot" cx="400" cy="140" r="4"/>
  
  <!-- Left side elements -->
  <circle class="circuit-line" cx="80" cy="120" r="4"/>
  <circle class="circuit-line" cx="140" cy="200" r="25"/>
  <circle class="circuit-line" cx="140" cy="200" r="15"/>
  
  <!-- Top horizontal connections -->
  <path class="circuit-line" d="M 80,120 L 180,120 L 180,200 L 240,200"/>
  <path class="circuit-line" d="M 240,200 L 460,200 L 460,280"/>
  
  <!-- Left vertical section -->
  <line class="circuit-line" x1="80" y1="120" x2="80" y2="600"/>
  <circle class="circuit-line" cx="80" cy="120" r="4"/>
  <line class="circuit-line" x1="30" y1="460" x2="80" y2="460"/>
  <circle class="circuit-dot" cx="30" cy="460" r="5"/>
  
  <!-- Center-left rectangular frame -->
  <rect class="circuit-line" x="370" y="270" width="280" height="180" rx="10"/>
  <line class="circuit-line" x1="400" y1="350" x2="400" y2="600"/>
  <circle class="circuit-dot" cx="400" cy="600" r="5"/>
  <circle class="circuit-line" cx="560" cy="360" r="8"/>
  <circle class="circuit-dot" cx="480" cy="590" r="5"/>
  
  <!-- Center rectangular sections -->
  <rect class="circuit-line" x="800" y="140" width="180" height="140" rx="5"/>
  <rect class="circuit-line" x="1000" y="160" width="140" height="120" rx="5"/>
  
  <!-- Circles in center rectangles -->
  <circle class="circuit-line" cx="890" cy="190" r="25"/>
  <circle class="circuit-line" cx="1070" cy="200" r="20"/>
  
  <!-- Top right curved paths -->
  <path class="circuit-line" d="M 700,40 L 1200,40 L 1200,80 L 1350,80"/>
  <path class="circuit-line" d="M 1350,80 L 1350,200 Q 1320,220 1300,200"/>
  
  <!-- Large diagonal element -->
  <path class="circuit-line" d="M 680,300 Q 750,280 820,340 L 1100,580" stroke-width="4"/>
  <path class="circuit-line" d="M 820,340 L 850,310 L 880,330 L 850,350 Z"/>
  
  <!-- Right side wavy lines -->
  <path class="circuit-line" d="M 1320,220 Q 1340,240 1360,220 Q 1380,240 1400,220 Q 1420,240 1440,220 Q 1460,240 1480,220 Q 1500,240 1520,220 Q 1540,240 1560,220 Q 1580,240 1600,220"/>
  
  <!-- Bottom wavy section -->
  <path class="circuit-line" d="M 1320,420 Q 1340,440 1360,420 Q 1380,440 1400,420 Q 1420,440 1440,420"/>
  
  <!-- Connection nodes -->
  <circle class="circuit-dot" cx="750" cy="130" r="5"/>
  <circle class="circuit-dot" cx="920" cy="630" r="7"/>
  <circle class="circuit-dot" cx="560" cy="700" r="6"/>
  <circle class="circuit-dot" cx="800" cy="600" r="5"/>
  
  <!-- Bottom horizontal paths -->
  <path class="circuit-line" d="M 50,740 L 150,740 L 150,780 L 370,780"/>
  <circle class="circuit-dot" cx="170" cy="760" r="3"/>
  <circle class="circuit-dot" cx="190" cy="760" r="3"/>
  <circle class="circuit-dot" cx="210" cy="760" r="3"/>
  
  <!-- Bottom curves and connections -->
  <path class="circuit-line" d="M 370,780 Q 390,800 370,820"/>
  <circle class="circuit-line" cx="370" cy="800" r="20"/>
  
  <!-- Connector symbols -->
  <rect class="circuit-line" x="950" y="620" width="40" height="25" rx="3"/>
  <circle class="circuit-dot" cx="965" cy="632" r="3"/>
  <circle class="circuit-dot" cx="975" cy="632" r="3"/>
  <circle class="circuit-dot" cx="985" cy="632" r="3"/>
  
  <!-- Vertical parallel lines right side -->
  <line class="circuit-line" x1="1300" y1="350" x2="1300" y2="550"/>
  <line class="circuit-line" x1="1310" y1="350" x2="1310" y2="550"/>
  <line class="circuit-line" x1="1320" y1="350" x2="1320" y2="550"/>
  <line class="circuit-line" x1="1330" y1="350" x2="1330" y2="550"/>
  <line class="circuit-line" x1="1340" y1="350" x2="1340" y2="550"/>
  <line class="circuit-line" x1="1350" y1="350" x2="1350" y2="550"/>
  <line class="circuit-line" x1="1360" y1="350" x2="1360" y2="550"/>
  
  <!-- Decorative circles -->
  <circle class="circuit-line" cx="990" cy="150" r="8"/>
  <circle class="circuit-line" cx="760" cy="130" r="15"/>
  <circle class="circuit-line" cx="630" cy="190" r="20"/>
  <circle class="circuit-dot" cx="1240" cy="570" r="6"/>
  <circle class="circuit-dot" cx="1380" cy="260" r="5"/>
  
  <!-- Additional decorative elements -->
  <path class="circuit-line" d="M 1050,490 L 1080,490 Q 1100,490 1100,510 L 1100,530"/>
  <path class="circuit-line" d="M 120,330 L 130,340 L 120,350 L 130,360 L 120,370" stroke-dasharray="3,3"/>
  
  <!-- More connection paths -->
  <path class="circuit-line" d="M 640,800 L 680,800 L 680,840 L 1920,840"/>
  <circle class="circuit-dot" cx="645" cy="800" r="3"/>
  <circle class="circuit-dot" cx="655" cy="800" r="3"/>
  <circle class="circuit-dot" cx="665" cy="800" r="3"/>
  
  <!-- Top right corner element -->
  <path class="circuit-line" d="M 1600,0 L 1600,80 Q 1650,100 1700,80 L 1920,80"/>
  <circle class="circuit-line" cx="1050" cy="50" r="15"/>
  
  <!-- Bottom right decorative -->
  <path class="circuit-line" d="M 1820,850 Q 1840,830 1860,850 L 1900,890"/>
  
  <!-- Capacitors (parallel lines) -->
  <g id="capacitor1" transform="translate(220, 450)">
    <line class="circuit-line" x1="0" y1="0" x2="0" y2="20"/>
    <line class="circuit-line" x1="-8" y1="20" x2="8" y2="20"/>
    <line class="circuit-line" x1="-8" y1="26" x2="8" y2="26"/>
    <line class="circuit-line" x1="0" y1="26" x2="0" y2="46"/>
  </g>
  
  <g id="capacitor2" transform="translate(520, 520)">
    <line class="circuit-line" x1="0" y1="0" x2="0" y2="15"/>
    <line class="circuit-line" x1="-6" y1="15" x2="6" y2="15"/>
    <line class="circuit-line" x1="-6" y1="20" x2="6" y2="20"/>
    <line class="circuit-line" x1="0" y1="20" x2="0" y2="35"/>
  </g>
  
  <g id="capacitor3" transform="translate(1150, 450)">
    <line class="circuit-line" x1="-15" y1="0" x2="-8" y2="0"/>
    <line class="circuit-line" x1="-8" y1="-6" x2="-8" y2="6"/>
    <line class="circuit-line" x1="-3" y1="-6" x2="-3" y2="6"/>
    <line class="circuit-line" x1="-3" y1="0" x2="5" y2="0"/>
  </g>
  
  <!-- Resistors (zigzag) -->
  <g id="resistor1" transform="translate(150, 550)">
    <path class="circuit-line" d="M 0,0 L 10,0 L 15,-8 L 25,8 L 35,-8 L 45,8 L 55,-8 L 60,0 L 70,0"/>
  </g>
  
  <g id="resistor2" transform="translate(720, 200)">
    <path class="circuit-line" d="M 0,0 L 8,0 L 12,-6 L 20,6 L 28,-6 L 36,6 L 44,-6 L 48,0 L 56,0"/>
  </g>
  
  <g id="resistor3" transform="translate(1450, 600)">
    <path class="circuit-line" d="M 0,0 L 0,10 L -6,15 L 6,25 L -6,35 L 6,45 L -6,55 L 0,60 L 0,70"/>
  </g>
  
  <!-- Inductors (coils) -->
  <g id="inductor1" transform="translate(300, 680)">
    <path class="circuit-line" d="M 0,0 Q 5,-8 10,0 Q 15,-8 20,0 Q 25,-8 30,0 Q 35,-8 40,0" fill="none"/>
    <line class="circuit-line" x1="-10" y1="0" x2="0" y2="0"/>
    <line class="circuit-line" x1="40" y1="0" x2="50" y2="0"/>
  </g>
  
  <g id="inductor2" transform="translate(950, 380)">
    <path class="circuit-line" d="M 0,0 Q -6,4 0,8 Q -6,12 0,16 Q -6,20 0,24 Q -6,28 0,32" fill="none"/>
    <line class="circuit-line" x1="0" y1="-8" x2="0" y2="0"/>
    <line class="circuit-line" x1="0" y1="32" x2="0" y2="40"/>
  </g>
  
  <!-- Diodes (triangle with line) -->
  <g id="diode1" transform="translate(1550, 380)">
    <line class="circuit-line" x1="0" y1="0" x2="0" y2="15"/>
    <path class="circuit-line" d="M -8,15 L 8,15 L 0,30 Z" fill="none"/>
    <line class="circuit-line" x1="-8" y1="30" x2="8" y2="30"/>
    <line class="circuit-line" x1="0" y1="30" x2="0" y2="45"/>
  </g>
  
  <g id="diode2" transform="translate(450, 650)">
    <line class="circuit-line" x1="0" y1="0" x2="12" y2="0"/>
    <path class="circuit-line" d="M 12,-6 L 12,6 L 24,0 Z" fill="none"/>
    <line class="circuit-line" x1="24" y1="-6" x2="24" y2="6"/>
    <line class="circuit-line" x1="24" y1="0" x2="36" y2="0"/>
  </g>
  
  <!-- Transistors (NPN style) -->
  <g id="transistor1" transform="translate(1250, 680)">
    <circle class="circuit-line" cx="0" cy="0" r="20" fill="none"/>
    <line class="circuit-line" x1="-20" y1="0" x2="-8" y2="0"/>
    <line class="circuit-line" x1="-8" y1="-10" x2="-8" y2="10"/>
    <line class="circuit-line" x1="-8" y1="-6" x2="8" y2="-14"/>
    <line class="circuit-line" x1="-8" y1="6" x2="8" y2="14"/>
    <line class="circuit-line" x1="8" y1="-14" x2="8" y2="-25"/>
    <line class="circuit-line" x1="8" y1="14" x2="8" y2="25"/>
    <polygon class="circuit-fill" points="8,14 4,8 10,10"/>
  </g>
  
  <g id="transistor2" transform="translate(650, 480)">
    <circle class="circuit-line" cx="0" cy="0" r="18" fill="none"/>
    <line class="circuit-line" x1="-18" y1="0" x2="-7" y2="0"/>
    <line class="circuit-line" x1="-7" y1="-8" x2="-7" y2="8"/>
    <line class="circuit-line" x1="-7" y1="-5" x2="7" y2="-12"/>
    <line class="circuit-line" x1="-7" y1="5" x2="7" y2="12"/>
    <line class="circuit-line" x1="7" y1="-12" x2="7" y2="-22"/>
    <line class="circuit-line" x1="7" y1="12" x2="7" y2="22"/>
    <polygon class="circuit-fill" points="7,12 3,7 9,9"/>
  </g>
  
  <!-- IC Chips (rectangles with pins) -->
  <g id="ic1" transform="translate(1100, 720)">
    <rect class="circuit-line" x="-30" y="-20" width="60" height="40" rx="2"/>
    <circle class="circuit-dot" cx="-25" cy="-25" r="2"/>
    <!-- Pins -->
    <line class="circuit-line" x1="-30" y1="-12" x2="-40" y2="-12"/>
    <line class="circuit-line" x1="-30" y1="0" x2="-40" y2="0"/>
    <line class="circuit-line" x1="-30" y1="12" x2="-40" y2="12"/>
    <line class="circuit-line" x1="30" y1="-12" x2="40" y2="-12"/>
    <line class="circuit-line" x1="30" y1="0" x2="40" y2="0"/>
    <line class="circuit-line" x1="30" y1="12" x2="40" y2="12"/>
  </g>
  
  <g id="ic2" transform="translate(850, 520)">
    <rect class="circuit-line" x="-25" y="-18" width="50" height="36" rx="2"/>
    <circle class="circuit-dot" cx="-20" cy="-22" r="2"/>
    <line class="circuit-line" x1="-25" y1="-10" x2="-35" y2="-10"/>
    <line class="circuit-line" x1="-25" y1="0" x2="-35" y2="0"/>
    <line class="circuit-line" x1="-25" y1="10" x2="-35" y2="10"/>
    <line class="circuit-line" x1="25" y1="-10" x2="35" y2="-10"/>
    <line class="circuit-line" x1="25" y1="0" x2="35" y2="0"/>
    <line class="circuit-line" x1="25" y1="10" x2="35" y2="10"/>
  </g>
  
  <!-- LEDs -->
  <g id="led1" transform="translate(1650, 720)">
    <line class="circuit-line" x1="0" y1="0" x2="0" y2="12"/>
    <path class="circuit-line" d="M -8,12 L 8,12 L 0,26 Z" fill="none"/>
    <line class="circuit-line" x1="-8" y1="26" x2="8" y2="26"/>
    <line class="circuit-line" x1="0" y1="26" x2="0" y2="38"/>
    <!-- Light rays -->
    <path class="circuit-line" d="M 10,8 L 16,4" stroke-width="1"/>
    <path class="circuit-line" d="M 15,4 L 13,6 L 16,7"/>
    <path class="circuit-line" d="M 10,14 L 18,12" stroke-width="1"/>
    <path class="circuit-line" d="M 17,12 L 15,13 L 17,15"/>
  </g>
  
  <!-- Crystal Oscillator -->
  <g id="crystal" transform="translate(1420, 280)">
    <rect class="circuit-line" x="-15" y="-8" width="30" height="16" rx="1"/>
    <line class="circuit-line" x1="-18" y1="-6" x2="-18" y2="6"/>
    <line class="circuit-line" x1="18" y1="-6" x2="18" y2="6"/>
    <line class="circuit-line" x1="-18" y1="0" x2="-25" y2="0"/>
    <line class="circuit-line" x1="18" y1="0" x2="25" y2="0"/>
  </g>
  
  <!-- Potentiometer -->
  <g id="pot" transform="translate(280, 850)">
    <path class="circuit-line" d="M 0,0 L 8,0 L 12,-6 L 20,6 L 28,-6 L 36,6 L 44,-6 L 48,0 L 56,0"/>
    <line class="circuit-line" x1="28" y1="6" x2="28" y2="18"/>
    <path class="circuit-line" d="M 28,18 L 24,24 L 32,24 Z" fill="none"/>
  </g>
  
  <!-- Fuse -->
  <g id="fuse" transform="translate(1720, 480)">
    <rect class="circuit-line" x="-20" y="-6" width="40" height="12" rx="6"/>
    <line class="circuit-line" x1="-30" y1="0" x2="-20" y2="0"/>
    <line class="circuit-line" x1="20" y1="0" x2="30" y2="0"/>
  </g>
  
  <!-- Ground symbols -->
  <g id="ground1" transform="translate(220, 520)">
    <line class="circuit-line" x1="0" y1="0" x2="0" y2="8"/>
    <line class="circuit-line" x1="-12" y1="8" x2="12" y2="8"/>
    <line class="circuit-line" x1="-8" y1="12" x2="8" y2="12"/>
    <line class="circuit-line" x1="-4" y1="16" x2="4" y2="16"/>
  </g>
  
  <g id="ground2" transform="translate(1450, 700)">
    <line class="circuit-line" x1="0" y1="0" x2="0" y2="6"/>
    <line class="circuit-line" x1="-10" y1="6" x2="10" y2="6"/>
    <line class="circuit-line" x1="-7" y1="10" x2="7" y2="10"/>
    <line class="circuit-line" x1="-4" y1="14" x2="4" y2="14"/>
  </g>
  
  <!-- Power symbols (VCC) -->
  <g id="vcc1" transform="translate(520, 180)">
    <line class="circuit-line" x1="0" y1="12" x2="0" y2="0"/>
    <circle class="circuit-dot" cx="0" cy="0" r="4"/>
    <line class="circuit-line" x1="-8" y1="-6" x2="8" y2="-6"/>
  </g>
  
  <g id="vcc2" transform="translate(1280, 120)">
    <line class="circuit-line" x1="0" y1="10" x2="0" y2="0"/>
    <circle class="circuit-dot" cx="0" cy="0" r="3"/>
    <line class="circuit-line" x1="-6" y1="-4" x2="6" y2="-4"/>
  </g>
  
  <!-- More connection traces -->
  <path class="circuit-line" d="M 520,215 L 520,380"/>
  <path class="circuit-line" d="M 776,200 L 850,200 L 850,280"/>
  <path class="circuit-line" d="M 1100,780 L 1450,780 L 1450,700"/>
  <path class="circuit-line" d="M 280,866 L 280,920 L 450,920"/>
  <path class="circuit-line" d="M 1550,425 L 1720,425 L 1720,480"/>
  
  <!-- Via holes (small filled circles) -->
  <circle class="circuit-fill" cx="520" cy="380" r="3"/>
  <circle class="circuit-fill" cx="850" cy="280" r="3"/>
  <circle class="circuit-fill" cx="776" cy="200" r="3"/>
  <circle class="circuit-fill" cx="450" cy="920" r="3"/>
  <circle class="circuit-fill" cx="1450" cy="780" r="3"/>
  <circle class="circuit-fill" cx="1720" cy="425" r="3"/>
  
</svg>