<svg height="21.0007cm" viewBox="0 0 116930 82680" width="29.7002cm" xmlns="http://www.w3.org/2000/svg"><g stroke-linecap="round" stroke-linejoin="round"><path d="m55500 25600h2000v800h-2000z" fill="none" stroke="#840000" stroke-width="100"/><g fill="#840000" fill-opacity="0" stroke="#840000" stroke-width="60"><path d="m57500 26000h500"/><path d="m55500 26000h-500"/></g><g fill="#008484" fill-opacity="0" stroke="#008484" stroke-width="60"><path d="m56410 24170-160-240"/><path d="m56130 24170v-500h190l40 30 30 20 20 50v70l-20 50-30 20-40 20h-190"/><path d="m56580 23670h310l-170 190h70l50 30 20 20 30 50v120l-30 40-20 30-50 20h-140l-50-20-20-30"/><path d="m55630 24630 20-20 50-30h120l40 30 30 20 20 50v40l-20 80-290 280h310"/><path d="m56100 24630 30-20 40-30h120l50 30 20 20 30 50v40l-30 80-280 280h310"/><path d="m56700 24580h50l40 30 30 20 20 50 20 90v120l-20 100-20 40-30 30-40 20h-50l-50-20-20-30-30-40-20-100v-120l20-90 30-50 20-20z"/><path d="m57360 25080-160-240"/><path d="m57080 25080v-500h190l50 30 20 20 20 50v70l-20 50-20 20-50 20h-190"/></g><path d="m55500 46600h2000v800h-2000z" fill="none" stroke="#840000" stroke-width="100"/><g fill="#840000" fill-opacity="0" stroke="#840000" stroke-width="60"><path d="m57500 47000h500"/><path d="m55500 47000h-500"/></g><g fill="#008484" fill-opacity="0" stroke="#008484" stroke-width="60"><path d="m56170 45170-160-240"/><path d="m55890 45170v-500h190l50 30 20 20 20 50v70l-20 50-20 20-50 20h-190"/><path d="m56650 45170h-290"/><path d="m56510 45170v-500l-50 70-50 50-50 20"/><path d="m57130 45170h-290"/><path d="m56980 45170v-500l-40 70-50 50-50 20"/><path d="m55630 45630 20-20 50-30h120l40 30 30 20 20 50v40l-20 80-290 280h310"/><path d="m56100 45630 30-20 40-30h120l50 30 20 20 30 50v40l-30 80-280 280h310"/><path d="m56700 45580h50l40 30 30 20 20 50 20 90v120l-20 100-20 40-30 30-40 20h-50l-50-20-20-30-30-40-20-100v-120l20-90 30-50 20-20z"/><path d="m57360 46080-160-240"/><path d="m57080 46080v-500h190l50 30 20 20 20 50v70l-20 50-20 20-50 20h-190"/></g><path d="m78100 35500h800v2000h-800z" fill="none" stroke="#840000" stroke-width="100"/><g fill="#840000" fill-opacity="0" stroke="#840000" stroke-width="60"><path d="m78500 35500v-500"/><path d="m78500 37500v500"/></g><g fill="#008484" fill-opacity="0" stroke="#008484" stroke-width="60"><path d="m79630 36280-160-240"/><path d="m79350 36280v-500h190l40 30 30 20 20 50v70l-20 50-30 20-40 20h-190"/><path d="m80080 35780h-230l-30 240 30-20 40-30h120l50 30 20 20 30 50v120l-30 40-20 30-50 20h-120l-40-20-30-30"/><path d="m79440 36690h40l50 30 20 20 30 50 20 90v120l-20 100-30 40-20 30-50 20h-40l-50-20-30-30-20-40-20-100v-120l20-90 20-50 30-20z"/><path d="m80100 37190-160-240"/><path d="m79820 37190v-500h190l40 30 30 20 20 50v70l-20 50-30 20-40 20h-190"/><path d="m80410 36690h50l50 30 20 20 20 50 30 90v120l-30 100-20 40-20 30-50 20h-50l-50-20-20-30-20-40-30-100v-120l30-90 20-50 20-20z"/><path d="m81050 37190h-280"/><path d="m80910 37190v-500l-50 70-40 50-50 20"/></g><path d="m35100 27000h800v2000h-800z" fill="none" stroke="#840000" stroke-width="100"/><g fill="#840000" fill-opacity="0" stroke="#840000" stroke-width="60"><path d="m35500 27000v-500"/><path d="m35500 29000v500"/></g><g fill="#008484" fill-opacity="0" stroke="#008484" stroke-width="60"><path d="m36630 27780-160-240"/><path d="m36350 27780v-500h190l40 30 30 20 20 50v70l-20 50-30 20-40 20h-190"/><path d="m36820 27330 30-20 40-30h120l50 30 20 20 30 50v40l-30 80-280 280h310"/><path d="m36600 28690h-290"/><path d="m36460 28690v-500l-50 70-50 50-50 20"/><path d="m36770 28190h310l-170 190h70l50 30 20 20 30 50v120l-30 40-20 30-50 20h-140l-50-20-20-30"/><path d="m37290 28690v-500"/><path d="m37580 28690-220-280"/><path d="m37580 28190-290 290"/></g><path d="m31000 24600h2000v800h-2000z" fill="none" stroke="#840000" stroke-width="100"/><g fill="#840000" fill-opacity="0" stroke="#840000" stroke-width="60"><path d="m33000 25000h500"/><path d="m31000 25000h-500"/></g><g fill="#008484" fill-opacity="0" stroke="#008484" stroke-width="60"><path d="m31910 23170-160-240"/><path d="m31630 23170v-500h190l40 30 30 20 20 50v70l-20 50-30 20-40 20h-190"/><path d="m32390 23170h-290"/><path d="m32250 23170v-500l-50 70-50 50-50 20"/><path d="m31360 23580h-90l-50 30-20 20-50 70-20 100v190l20 40 20 30 50 20h100l40-20 30-30 20-40v-120l-20-50-30-20-40-30h-100l-50 30-20 20-20 50"/><path d="m31600 23630 30-20 40-30h120l50 30 20 20 30 50v40l-30 80-280 280h310"/><path d="m32200 23580h50l40 30 30 20 20 50 20 90v120l-20 100-20 40-30 30-40 20h-50l-50-20-20-30-30-40-20-100v-120l20-90 30-50 20-20z"/><path d="m32580 24080v-500"/><path d="m32860 24080-210-280"/><path d="m32860 23580-280 290"/></g><g stroke="#840000"><circle cx="78150" cy="31000" fill="none" r="1110" stroke-width="100"/><g fill="#840000" stroke-width="60"><circle cx="78500" cy="31700" r="110"/><circle cx="78500" cy="30300" r="110"/></g><g fill="#840000" fill-opacity="0" stroke-width="60"><path d="m77520 31000h80"/><path d="m77800 31700h700"/></g><g fill="none"><path d="m77800 31500v400" stroke-width="100"/><path d="m77800 31000h700" stroke-width="60"/><path d="m77800 30800v400" stroke-width="100"/><path d="m77800 30300h700" stroke-width="60"/><path d="m77800 30100v400" stroke-width="100"/></g><g fill="#840000" fill-opacity="0" stroke-width="60"><path d="m78500 31700v300"/><path d="m78500 31700v-700"/><path d="m78500 30000v300"/></g><path d="m77600 30250v1500" fill="none" stroke-width="100"/><g fill="#840000" stroke-width="60"><path d="m77900 31000 400-150v300z" fill-rule="evenodd"/><g fill-opacity="0"><path d="m78500 31700h300v-1400h-300"/><path d="m78600 30800 50 50h300l50 50"/><path d="m78800 30850-150 250h300z"/><path d="m77500 31000h-2000"/><path d="m76640 31570h-290"/><path d="m76500 31570v-500l-50 70-50 50-50 20"/><path d="m78500 30000v-1000"/><path d="m78620 29640-20-30-30-40v-120l30-50 20-20 50-30h40l80 30 280 280v-310"/><path d="m78500 32000v1000"/><path d="m78570 32660v-310l190 170v-70l30-50 20-20 50-30h120l40 30 30 20 20 50v140l-20 50-30 20"/></g></g></g><g fill="#008484" fill-opacity="0" stroke="#008484" stroke-width="60"><path d="m80040 30830-50-20-50-50-70-70-50-30h-40"/><path d="m79800 30780-50-20-50-50-20-100v-160l20-100 50-40 50-30h90l50 30 50 40 20 100v160l-20 100-50 50-50 20z"/><path d="m80490 30780h-290"/><path d="m80350 30780v-500l-50 70-50 50-50 20"/><path d="m79700 31690v-500"/><path d="m80220 31690-160-240"/><path d="m79940 31690v-500h190l40 30 30 20 20 50v70l-20 50-30 20-40 20h-190"/><path d="m80600 31430h-160"/><path d="m80440 31690v-500h230"/><path d="m80860 31690v-500h200l40 30 30 20 20 50v70l-20 50-30 20-40 20h-200"/><path d="m81320 31190h330l-210 500"/><path d="m82080 31190h-240l-20 240 20-20 50-30h120l50 30 20 20 20 50v120l-20 40-20 30-50 20h-120l-50-20-20-30"/><path d="m82270 31190h310l-170 190h70l50 30 30 20 20 50v120l-20 40-30 30-50 20h-140l-50-20-20-30"/><path d="m82890 31190h50l40 30 30 20 20 50 30 90v120l-30 100-20 40-30 30-40 20h-50l-50-20-20-30-30-40-20-100v-120l20-90 30-50 20-20z"/><path d="m83270 31690v-500h190l50 30 20 20 30 50v70l-30 50-20 20-50 20h-190"/><path d="m83770 31690v-500"/><path d="m83770 31380 50-20h90l50 20 20 30 30 40v150l-30 40-20 30-50 20h-90l-50-20"/><path d="m84390 31430h-170"/><path d="m84220 31690v-500h240"/></g><path d="m48500 29600h2000v800h-2000z" fill="none" stroke="#840000" stroke-width="100"/><g fill-opacity="0" stroke-width="60"><g fill="#840000" stroke="#840000"><path d="m48500 30000h-500"/><path d="m50500 30000h500"/></g><g fill="#008484" stroke="#008484"><path d="m49280 28860-240 170"/><path d="m49280 29140h-500v-190l30-40 20-30 50-20h70l50 20 20 30 20 40v190"/><path d="m48780 28430v100l30 40 20 30 70 40 100 30h190l40-30 30-20 20-50v-90l-20-50-30-20-40-30h-120l-50 30-20 20-30 50v90l30 50 20 20 50 30"/><path d="m49860 28930h330"/><path d="m49670 29050 350 110v-310"/><path d="m49690 28710v-330l500 210"/><path d="m49690 28090v-40l30-50 20-30 50-20 90-20h120l100 20 40 20 30 30 20 50v40l-20 50-30 20-40 30-100 20h-120l-90-20-50-30-20-20z"/><path d="m50190 27710h-500"/><path d="m50190 27430-280 210"/><path d="m49690 27430 290 280"/></g></g></g><path d="m10000 40500h1000v3000h-1000z" fill="#ffffc2" fill-opacity=".6"/><g stroke-linecap="round" stroke-linejoin="round"><path d="m10000 40500h1000v3000h-1000z" fill="none" stroke="#840000" stroke-width="100"/><g fill-opacity="0" stroke-width="60"><g fill="#840000" stroke="#840000"><path d="m10500 40950h500v100h-500z"/><path d="m10500 41950h500v100h-500z"/><path d="m10500 42950h500v100h-500z"/><path d="m11000 43000h1500"/><path d="m11890 42870h-290"/><path d="m11750 42870v-500l-50 70-50 50-50 20"/><path d="m11000 42000h1500"/><path d="m11600 41420 30-20 40-30h120l50 30 20 20 30 50v40l-30 80-280 280h310"/><path d="m11000 41000h1500"/><path d="m11580 40370h310l-170 190h70l50 30 20 20 30 50v120l-30 40-20 30-50 20h-140l-50-20-20-30"/></g><g fill="#008484" stroke="#008484"><path d="m11130 38440v360l-30 70-40 50-70 20h-50"/><path d="m11320 38440h310l-170 190h70l50 30 20 20 30 50v120l-30 40-20 30-50 20h-140l-50-20-20-30"/><path d="m10460 39850v-500l170 360 170-360v500"/><path d="m11100 39850-40-20-30-30-20-40v-150l20-40 30-30 40-20h80l40 20 30 30 20 40v150l-20 40-30 30-40 20z"/><path d="m11700 39850v-500"/><path d="m11700 39830-50 20h-90l-50-20-20-30-30-40v-150l30-40 20-30 50-20h90l50 20"/><path d="m12130 39830-50 20h-90l-50-20-30-50v-190l30-50 50-20h90l50 20 20 50v50l-240 40"/></g></g></g><path d="m23500 67500h1000v2000h-1000z" fill="#ffffc2" fill-opacity=".6"/><g stroke-linecap="round" stroke-linejoin="round"><path d="m23500 67500h1000v2000h-1000z" fill="none" stroke="#840000" stroke-width="100"/><g fill-opacity="0" stroke-width="60"><g fill="#840000" stroke="#840000"><path d="m24000 67950h500v100h-500z"/><path d="m24000 68950h500v100h-500z"/><path d="m24500 69000h1500"/><path d="m25390 68870h-290"/><path d="m25250 68870v-500l-50 70-50 50-50 20"/><path d="m24500 68000h1500"/><path d="m25100 67420 30-20 40-30h120l50 30 20 20 30 50v40l-30 80-280 280h310"/></g><g fill="#008484" stroke="#008484"><path d="m24630 65440v360l-30 70-40 50-70 20h-50"/><path d="m25130 65940h-290"/><path d="m24990 65940v-500l-50 70-50 50-50 20"/><path d="m23800 66850v-500h190l50 30 20 20 20 50v70l-20 50-20 20-50 20h-190"/><path d="m24370 66850-50-20-20-30-30-40v-150l30-40 20-30 50-20h70l50 20 20 30 30 40v150l-30 40-20 30-50 20z"/><path d="m24700 66520 100 330 90-240 100 240 90-330"/><path d="m25460 66830-40 20h-100l-50-20-20-50v-190l20-50 50-20h100l40 20 30 50v50l-240 40"/><path d="m25700 66850v-330"/><path d="m25700 66610 30-40 20-30 50-20h40"/></g></g></g><path d="m19500 40500h1000v2000h-1000z" fill="#ffffc2" fill-opacity=".6"/><g stroke-linecap="round" stroke-linejoin="round"><path d="m19500 40500h1000v2000h-1000z" fill="none" stroke="#840000" stroke-width="100"/><g fill-opacity="0" stroke-width="60"><g fill="#840000" stroke="#840000"><path d="m20000 40950h500v100h-500z"/><path d="m20000 41950h500v100h-500z"/><path d="m20500 42000h1500"/><path d="m21390 41870h-290"/><path d="m21250 41870v-500l-50 70-50 50-50 20"/><path d="m20500 41000h1500"/><path d="m21100 40420 30-20 40-30h120l50 30 20 20 30 50v40l-30 80-280 280h310"/></g><g fill="#008484" stroke="#008484"><path d="m20630 38440v360l-30 70-40 50-70 20h-50"/><path d="m20840 38490 30-20 40-30h120l50 30 20 20 30 50v40l-30 80-280 280h310"/><path d="m20110 39350 160 500 170-500"/><path d="m20610 39850v-330"/><path d="m20610 39610 20-40 20-30 50-20h50"/><path d="m21110 39830-50 20h-100l-40-20-30-50v-190l30-50 40-20h100l50 20 20 50v50l-240 40"/><path d="m21270 39520h190"/><path d="m21340 39850v-430l30-40 50-30h40"/></g></g></g><path d="m85000 35500h1000v2000h-1000z" fill="#ffffc2" fill-opacity=".6"/><g stroke-linecap="round" stroke-linejoin="round"><path d="m85000 35500h1000v2000h-1000z" fill="none" stroke="#840000" stroke-width="100"/><g fill-opacity="0" stroke-width="60"><g fill="#840000" stroke="#840000"><path d="m85000 35950h500v100h-500z"/><path d="m85000 36950h500v100h-500z"/><path d="m85000 37000h-1500"/><path d="m84390 36870h-290"/><path d="m84250 36870v-500l-50 70-50 50-50 20"/><path d="m85000 36000h-1500"/><path d="m84100 35420 30-20 40-30h120l50 30 20 20 30 50v40l-30 80-280 280h310"/></g><g fill="#008484" stroke="#008484"><path d="m86590 36610v360l-30 70-40 50-70 20h-50"/><path d="m87040 36610h-90l-50 30-30 20-40 70-30 100v190l30 40 20 30 50 20h90l50-20 20-30 30-40v-120l-30-50-20-20-50-30h-90l-50 30-20 20-30 50"/><path d="m86440 36200v-500"/><path d="m86750 36200-50-20-20-30-30-40v-150l30-40 20-30 50-20h70l50 20 20 30 30 40v150l-30 40-20 30-50 20z"/><path d="m87340 35870v330"/><path d="m87130 35870v260l20 50 50 20h70l50-20 20-30"/><path d="m87510 35870h190"/><path d="m87580 35700v430l30 50 40 20h50"/></g></g></g><path d="m104500 31500h1000v2000h-1000z" fill="#ffffc2" fill-opacity=".6"/><g stroke-linecap="round" stroke-linejoin="round"><path d="m104500 31500h1000v2000h-1000z" fill="none" stroke="#840000" stroke-width="100"/><g fill-opacity="0" stroke-width="60"><g fill="#840000" stroke="#840000"><path d="m104500 32950h500v100h-500z"/><path d="m104500 31950h500v100h-500z"/><path d="m104500 32000h-1500"/><path d="m103890 31870h-290"/><path d="m103750 31870v-500l-50 70-50 50-50 20"/><path d="m104500 33000h-1500"/><path d="m103600 32420 30-20 40-30h120l50 30 20 20 30 50v40l-30 80-280 280h310"/></g><g fill="#008484" stroke="#008484"><path d="m106080 31820v360l-30 70-40 50-70 20h-50"/><path d="m106550 31820h-230l-30 240 30-20 40-30h120l50 30 20 20 30 50v120l-30 40-20 30-50 20h-120l-40-20-30-30"/><path d="m105860 32730 170 500 170-500"/><path d="m106430 33230-40-20-30-30-20-40v-150l20-40 30-30 40-20h80l40 20 30 30 20 40v150l-20 40-30 30-40 20z"/><path d="m107030 32900v330"/><path d="m106820 32900v260l20 50 50 20h70l50-20 20-30"/><path d="m107200 32900h190"/><path d="m107270 32730v430l20 50 50 20h50"/></g></g></g><path d="m98500 31500h1000v2000h-1000z" fill="#ffffc2" fill-opacity=".6"/><g stroke-linecap="round" stroke-linejoin="round"><path d="m98500 31500h1000v2000h-1000z" fill="none" stroke="#840000" stroke-width="100"/><g fill="#840000" fill-opacity="0" stroke="#840000" stroke-width="60"><path d="m98500 32950h500v100h-500z"/><path d="m98500 31950h500v100h-500z"/><path d="m98500 32000h-1500"/><path d="m97890 31870h-290"/><path d="m97750 31870v-500l-50 70-50 50-50 20"/><path d="m98500 33000h-1500"/><path d="m97600 32420 30-20 40-30h120l50 30 20 20 30 50v40l-30 80-280 280h310"/></g><g fill="#008484" fill-opacity="0" stroke="#008484" stroke-width="60"><path d="m100090 31820v360l-30 70-40 50-70 20h-50"/><path d="m100540 31990v330"/><path d="m100420 31800-120 350h310"/><path d="m99870 32730 170 500 160-500"/><path d="m100350 33210 40 20h100l50-20 20-50v-20l-20-50-50-30h-70l-50-20-20-50v-20l20-50 50-20h70l50 20"/><path d="m100960 33210-40 20h-100l-50-20-20-50v-190l20-50 50-20h100l40 20 30 50v50l-240 40"/><path d="m101200 32900v330"/><path d="m101200 32950 30-30 40-20h80l40 20 30 50v260"/><path d="m101630 33210 50 20h90l50-20 30-50v-20l-30-50-50-30h-70l-50-20-20-50v-20l20-50 50-20h70l50 20"/><path d="m102250 33210-50 20h-90l-50-20-20-50v-190l20-50 50-20h90l50 20 20 50v50l-230 40"/></g><path d="m48500 50600h2000v800h-2000z" fill="none" stroke="#840000" stroke-width="100"/><g fill="#840000" fill-opacity="0" stroke="#840000" stroke-width="60"><path d="m48500 51000h-500"/><path d="m50500 51000h500"/></g><g fill="#008484" fill-opacity="0" stroke="#008484" stroke-width="60"><path d="m49280 49860-240 160"/><path d="m49280 50140h-500v-190l30-50 20-20 50-20h70l50 20 20 20 20 50v190"/><path d="m49280 49380v290"/><path d="m49280 49520h-500l70 50 50 50 20 50"/><path d="m48830 49190-20-20-30-50v-120l30-50 20-20 50-30h40l80 30 280 280v-310"/><path d="m49860 49930h330"/><path d="m49670 50050 350 110v-310"/><path d="m49690 49710v-330l500 210"/><path d="m49690 49090v-40l30-50 20-30 50-20 90-20h120l100 20 40 20 30 30 20 50v40l-20 50-30 20-40 30-100 20h-120l-90-20-50-30-20-20z"/><path d="m50190 48710h-500"/><path d="m50190 48430-280 210"/><path d="m49690 48430 290 280"/></g><path d="m31000 47600h2000v800h-2000z" fill="none" stroke="#840000" stroke-width="100"/><g fill="#840000" fill-opacity="0" stroke="#840000" stroke-width="60"><path d="m33000 48000h500"/><path d="m31000 48000h-500"/></g><g fill="#008484" fill-opacity="0" stroke="#008484" stroke-width="60"><path d="m31910 46170-160-240"/><path d="m31630 46170v-500h190l40 30 30 20 20 50v70l-20 50-30 20-40 20h-190"/><path d="m32080 45670h330l-210 500"/><path d="m31410 47080h-280"/><path d="m31270 47080v-500l-50 70-50 50-40 20"/><path d="m31860 46580h-230l-30 240 30-20 40-30h120l50 30 20 20 30 50v120l-30 40-20 30-50 20h-120l-40-20-30-30"/><path d="m32200 46580h50l40 30 30 20 20 50 20 90v120l-20 100-20 40-30 30-40 20h-50l-50-20-20-30-30-40-20-100v-120l20-90 30-50 20-20z"/><path d="m32580 47080v-500"/><path d="m32860 47080-210-280"/><path d="m32860 46580-280 290"/></g><path d="m35100 51000h800v2000h-800z" fill="none" stroke="#840000" stroke-width="100"/><g fill="#840000" fill-opacity="0" stroke="#840000" stroke-width="60"><path d="m35500 51000v-500"/><path d="m35500 53000v500"/></g><g fill="#008484" fill-opacity="0" stroke="#008484" stroke-width="60"><path d="m36630 51780-160-240"/><path d="m36350 51780v-500h190l40 30 30 20 20 50v70l-20 50-30 20-40 20h-190"/><path d="m36920 51500-50-30-20-20-30-50v-20l30-50 20-20 50-30h90l50 30 20 20 30 50v20l-30 50-20 20-50 30h-90l-50 20-20 20-30 50v100l30 40 20 30 50 20h90l50-20 20-30 30-40v-100l-30-50-20-20-50-20"/><path d="m36600 52690h-280"/><path d="m36460 52690v-500l-50 70-40 50-50 20"/><path d="m36820 52690v-500l170 360 160-360v500"/><path d="m37630 52190h-240l-20 240 20-20 50-30h120l40 30 30 20 20 50v120l-20 40-30 30-40 20h-120l-50-20-20-30"/></g><path d="m40100 51000h800v2000h-800z" fill="none" stroke="#840000" stroke-width="100"/><g fill="#840000" fill-opacity="0" stroke="#840000" stroke-width="60"><path d="m40500 51000v-500"/><path d="m40500 53000v500"/></g><g fill="#008484" fill-opacity="0" stroke="#008484" stroke-width="60"><path d="m41620 51780-160-240"/><path d="m41340 51780v-500h190l50 30 20 20 20 50v70l-20 50-20 20-50 20h-190"/><path d="m42100 51780h-290"/><path d="m41960 51780v-500l-50 70-50 50-50 20"/><path d="m42410 51280h50l40 30 30 20 20 50 30 90v120l-30 100-20 40-30 30-40 20h-50l-50-20-20-30-30-40-20-100v-120l20-90 30-50 20-20z"/><path d="m41600 52690h-280"/><path d="m41460 52690v-500l-50 70-50 50-40 20"/><path d="m42050 52190h-230l-30 240 30-20 40-30h120l50 30 20 20 30 50v120l-30 40-20 30-50 20h-120l-40-20-30-30"/><path d="m42390 52190h50l40 30 30 20 20 50 20 90v120l-20 100-20 40-30 30-40 20h-50l-50-20-20-30-30-40-20-100v-120l20-90 30-50 20-20z"/><path d="m42770 52690v-500"/><path d="m43050 52690-210-280"/><path d="m43050 52190-280 290"/></g><path d="m55500 36600h2000v800h-2000z" fill="none" stroke="#840000" stroke-width="100"/><g fill="#840000" fill-opacity="0" stroke="#840000" stroke-width="60"><path d="m57500 37000h500"/><path d="m55500 37000h-500"/></g><g fill="#008484" fill-opacity="0" stroke="#008484" stroke-width="60"><path d="m56410 35170-160-240"/><path d="m56130 35170v-500h190l40 30 30 20 20 50v70l-20 50-30 20-40 20h-190"/><path d="m56650 35170h100l40-20 30-30 40-70 30-90v-190l-30-50-20-20-50-30h-90l-50 30-20 20-30 50v120l30 40 20 30 50 20h90l50-20 20-30 30-40"/><path d="m56110 36080h-280"/><path d="m55970 36080v-500l-50 70-40 50-50 20"/><path d="m56330 36080v-500l170 360 160-360v500"/><path d="m57140 35580h-240l-20 240 20-20 50-30h120l40 30 30 20 20 50v120l-20 40-30 30-40 20h-120l-50-20-20-30"/></g><path d="m72100 35500h800v2000h-800z" fill="none" stroke="#840000" stroke-width="100"/><g fill="#840000" fill-opacity="0" stroke="#840000" stroke-width="60"><path d="m72500 35500v-500"/><path d="m72500 37500v500"/></g><g fill="#008484" fill-opacity="0" stroke="#008484" stroke-width="60"><path d="m73630 36280-160-240"/><path d="m73350 36280v-500h190l40 30 30 20 20 50v70l-20 50-30 20-40 20h-190"/><path d="m74060 35950v330"/><path d="m73940 35760-120 350h310"/><path d="m73320 36740 20-20 50-30h120l40 30 30 20 20 50v40l-20 80-290 280h310"/><path d="m73790 36740 30-20 40-30h120l50 30 20 20 30 50v40l-30 80-280 280h310"/><path d="m74390 36690h50l40 30 30 20 20 50 20 90v120l-20 100-20 40-30 30-40 20h-50l-50-20-20-30-30-40-20-100v-120l20-90 30-50 20-20z"/><path d="m74770 37190v-500"/><path d="m75050 37190-210-280"/><path d="m75050 36690-280 290"/></g><g fill="#008400" stroke="#008400"><g fill-opacity="0" stroke-width="60"><path d="m43000 25000h-7500"/><path d="m35500 26500v-1500"/></g><circle cx="35500" cy="25000" r="200" stroke-width="100"/><g fill-opacity="0" stroke-width="60"><path d="m35500 25000h-2000"/><path d="m55000 26000h-3000"/><path d="m72500 38000v3000"/><path d="m72500 41000h6000"/><path d="m49000 47000h6000"/><path d="m58000 47000h9000"/><path d="m67000 47000v-16000"/><path d="m58000 26000h9000"/><path d="m67000 26000v5000"/></g><circle cx="67000" cy="31000" r="200" stroke-width="100"/><g fill-opacity="0" stroke-width="60"><path d="m43000 48000h-7500"/><path d="m35500 50500v-2500"/></g><circle cx="35500" cy="48000" r="200" stroke-width="100"/></g><g stroke-width="60"><g fill="#008400" fill-opacity="0" stroke="#008400"><path d="m35500 48000h-2000"/><path d="m43000 46000h-2500"/><path d="m40500 46000v4500"/></g><path d="m40500 54500v500h500l-500 500-500-500h500" fill="none" stroke="#840000"/><g fill="#008484" fill-opacity="0" stroke="#008484"><path d="m40160 56000-40-30h-70l-80 30-40 40-30 50-20 100v70l20 90 30 50 40 50 80 20h40l70-20 30-30v-160h-100"/><path d="m40400 56470v-500l290 500v-500"/><path d="m40930 56470v-500h120l70 30 40 40 30 50 20 100v70l-20 90-30 50-40 50-70 20z"/></g><path d="m35500 30500v500h500l-500 500-500-500h500" fill="none" stroke="#840000"/><g fill="#008484" fill-opacity="0" stroke="#008484"><path d="m35160 32000-40-30h-70l-80 30-40 40-30 50-20 100v70l20 90 30 50 40 50 80 20h40l70-20 30-30v-160h-100"/><path d="m35400 32470v-500l290 500v-500"/><path d="m35930 32470v-500h120l70 30 40 40 30 50 20 100v70l-20 90-30 50-40 50-70 20z"/></g><g fill="#008400" fill-opacity="0" stroke="#008400"><path d="m35500 30500v-1000"/><path d="m40500 54500v-1000"/></g><path d="m22000 43000v500h500l-500 500-500-500h500" fill="none" stroke="#840000"/><g fill="#008484" fill-opacity="0" stroke="#008484"><path d="m21660 44500-40-30h-70l-80 30-40 40-30 50-20 100v70l20 90 30 50 40 50 80 20h40l70-20 30-30v-160h-100"/><path d="m21900 44970v-500l290 500v-500"/><path d="m22430 44970v-500h120l70 30 40 40 30 50 20 100v70l-20 90-30 50-40 50-70 20z"/></g><path d="m22000 43000v-1000" fill="none" stroke="#008400"/><path d="m52000 31000v500h500l-500 500-500-500h500" fill="none" stroke="#840000"/><g fill-opacity="0"><g fill="#008484" stroke="#008484"><path d="m51660 32500-40-30h-70l-80 30-40 40-30 50-20 100v70l20 90 30 50 40 50 80 20h40l70-20 30-30v-160h-100"/><path d="m51900 32970v-500l290 500v-500"/><path d="m52430 32970v-500h120l70 30 40 40 30 50 20 100v70l-20 90-30 50-40 50-70 20z"/></g><g fill="#008400" stroke="#008400"><path d="m46000 32000v-2000"/><path d="m46000 59500v-8500"/><path d="m78500 25000v4000"/></g></g></g><g fill="#008400" stroke="#008400"><circle cx="78500" cy="41000" r="200" stroke-width="100"/><g fill-opacity="0" stroke-width="60"><path d="m97000 33000v2000"/><path d="m97000 32000v-2000"/><path d="m78500 38000v1000"/><path d="m83500 37000v2000"/><path d="m83500 39000h-5000"/></g><circle cx="78500" cy="39000" r="200" stroke-width="100"/></g><g stroke-width="60"><g fill="#008400" fill-opacity="0" stroke="#008400"><path d="m78500 39000v2000"/><path d="m35500 53500v4000"/></g><path d="m78500 42000v500h500l-500 500-500-500h500" fill="none" stroke="#840000"/><g fill-opacity="0"><g fill="#008484" stroke="#008484"><path d="m78160 43500-40-30h-70l-80 30-40 40-30 50-20 100v70l20 90 30 50 40 50 80 20h40l70-20 30-30v-160h-100"/><path d="m78400 43970v-500l290 500v-500"/><path d="m78930 43970v-500h120l70 30 40 40 30 50 20 100v70l-20 90-30 50-40 50-70 20z"/></g><g fill="#008400" stroke="#008400"><path d="m78500 42000v-1000"/><path d="m103000 32000v-2000"/><path d="m97000 30000h6000"/><path d="m103000 33000v2000"/><path d="m97000 35000h6000"/><path d="m35500 57500h61500"/><path d="m63500 20500h33500"/></g></g></g><circle cx="97000" cy="30000" fill="#008400" r="200" stroke="#008400" stroke-width="100"/><g fill="#840000" fill-opacity="0" stroke="#840000" stroke-width="200"><path d="m34200 68800h1600"/><path d="m34200 68200h1600"/></g><g stroke-width="60"><g fill="#840000" fill-opacity="0" stroke="#840000"><path d="m35000 68100v-1100"/><path d="m35000 68900v1100"/></g><g fill="#008484" fill-opacity="0" stroke="#008484"><path d="m36580 68230-20 30-70 20h-50l-70-20-50-50-20-50-30-90v-70l30-100 20-50 50-40 70-30h50l70 30 20 20"/><path d="m37060 68280h-290"/><path d="m36920 68280v-500l-50 70-50 50-50 20"/><path d="m36560 69190h-290"/><path d="m36410 69190v-500l-40 70-50 50-50 20"/><path d="m36870 68690h40l50 30 20 20 30 50 20 90v120l-20 100-30 40-20 30-50 20h-40l-50-20-30-30-20-40-20-100v-120l20-90 20-50 30-20z"/><path d="m37340 68690h50l50 30 20 20 20 50 30 90v120l-30 100-20 40-20 30-50 20h-50l-50-20-20-30-20-40-30-100v-120l30-90 20-50 20-20z"/><path d="m37720 68860v330"/><path d="m37720 68910 30-30 40-20h70l50 20 30 50v260"/></g><path d="m26000 72000v500h500l-500 500-500-500h500" fill="none" stroke="#840000"/><g fill-opacity="0"><g fill="#008484" stroke="#008484"><path d="m25660 73500-40-30h-70l-80 30-40 40-30 50-20 100v70l20 90 30 50 40 50 80 20h40l70-20 30-30v-160h-100"/><path d="m25900 73970v-500l290 500v-500"/><path d="m26430 73970v-500h120l70 30 40 40 30 50 20 100v70l-20 90-30 50-40 50-70 20z"/></g><g fill="#840000" stroke="#840000"><circle cx="26000" cy="64250" r="250"/><path d="m26000 65000v-500"/></g><g fill="#008484" stroke="#008484"><path d="m25500 63010 170 500 160-500"/><path d="m26000 63510v-500h120l70 30 50 40 20 50 20 100v70l-20 90-20 50-50 50-70 20z"/><path d="m26500 63510v-500h120l70 30 50 40 20 50 20 100v70l-20 90-20 50-50 50-70 20z"/></g></g><path d="m63500 20500v16500" fill="none" stroke="#008400"/><path d="m35000 65000v-500l-400-250 400-250 400 250-400 250" fill="none" stroke="#840000"/><g fill="#008484" fill-opacity="0" stroke="#008484"><path d="m33260 63500v-500h190l50 30 20 20 20 50v70l-20 50-20 20-50 20h-190"/><path d="m33710 63000 120 500 90-360 100 360 120-500"/><path d="m34610 63500-160-240"/><path d="m34330 63500v-500h190l50 30 20 20 20 50v70l-20 50-20 20-50 20h-190"/><path d="m34710 63550h380"/><path d="m35380 63240h-170"/><path d="m35210 63500v-500h240"/><path d="m35880 63500h-240v-500"/><path d="m36020 63360h240"/><path d="m35970 63500 170-500 160 500"/><path d="m36730 63030-40-30h-80l-70 30-40 40-30 50-20 100v70l20 90 30 50 40 50 70 20h50l70-20 30-30v-160h-100"/></g><path d="m35000 72000v500l400 250-400 250-400-250 400-250" fill="none" stroke="#840000"/><g fill-opacity="0"><g fill="#008484" stroke="#008484"><path d="m33250 73920v-500h190l50 30 20 20 20 50v70l-20 50-20 20-50 20h-190"/><path d="m33700 73420 120 500 90-360 100 360 120-500"/><path d="m34600 73920-160-240"/><path d="m34320 73920v-500h190l50 30 20 20 20 50v70l-20 50-20 20-50 20h-190"/><path d="m34700 73970h380"/><path d="m35370 73660h-170"/><path d="m35200 73920v-500h240"/><path d="m35870 73920h-240v-500"/><path d="m36010 73780h240"/><path d="m35960 73920 170-500 160 500"/><path d="m36720 73450-40-30h-80l-70 30-40 40-30 50-20 100v70l20 90 30 50 40 50 70 20h50l70-20 30-30v-160h-100"/></g><g fill="#008400" stroke="#008400"><path d="m30500 25000h-3500"/><path d="m27000 25000v16000"/><path d="m22000 41000h5000"/><path d="m30500 48000h-3500"/><path d="m27000 48000v-7000"/></g></g></g><g stroke="#008400"><circle cx="27000" cy="41000" fill="#008400" r="200" stroke-width="100"/><path d="m67000 31000h5500" fill="none" stroke-width="60"/><g fill="#008400"><circle cx="97000" cy="35000" r="200" stroke-width="100"/><g fill-opacity="0" stroke-width="60"><path d="m78500 33000v1000"/><path d="m72500 35000v-4000"/></g><circle cx="72500" cy="31000" r="200" stroke-width="100"/><g fill-opacity="0" stroke-width="60"><path d="m72500 31000h3000"/><path d="m83500 34000h-5000"/></g><circle cx="78500" cy="34000" r="200" stroke-width="100"/></g></g><g stroke-width="60"><g fill="#008400" fill-opacity="0" stroke="#008400"><path d="m78500 34000v1000"/><path d="m78500 34000h-20500"/></g><path d="m90450 31160h100v340h-100z" fill="#840000" stroke="#840000"/><g fill="#840000" fill-opacity="0" stroke="#840000"><path d="m90500 31000v160"/><path d="m90500 31000v-1500"/><path d="m90370 30100v290"/><path d="m90370 30250h-500l70 40 50 50 20 50"/></g><g fill="#008484" fill-opacity="0" stroke="#008484"><path d="m91670 29660v360l-30 70-40 50-70 20h-50"/><path d="m91860 29660h330l-210 500"/><path d="m91500 31050 70 20h120l50-20 20-30 20-40v-50l-20-50-20-20-50-30-100-20-50-20-20-30-20-50v-40l20-50 20-20 50-30h120l70 30"/><path d="m92070 31070-50-20-20-30-30-40v-150l30-40 20-30 50-20h70l50 20 20 30 30 40v150l-30 40-20 30-50 20z"/><path d="m92660 30740v330"/><path d="m92450 30740v260l20 50 50 20h70l50-20 20-30"/><path d="m92900 31070v-330"/><path d="m92900 30830 30-40 20-30 50-20h40"/><path d="m93430 31050-50 20h-100l-40-20-30-30-20-40v-150l20-40 30-30 40-20h100l50 20"/><path d="m93830 31050-50 20h-90l-50-20-20-50v-190l20-50 50-20h90l50 20 20 50v50l-230 40"/><path d="m94070 30880h380"/><path d="m94260 31070v-380"/></g><path d="m90450 33500h100v340h-100z" fill="#840000" stroke="#840000"/><g fill-opacity="0"><g fill="#840000" stroke="#840000"><path d="m90500 34000v-160"/><path d="m90500 34000v1500"/><path d="m90370 34600v290"/><path d="m90370 34750h-500l70 40 50 50 20 50"/></g><g fill="#008484" stroke="#008484"><path d="m91200 33840v360l-30 70-40 50-70 20h-50"/><path d="m91510 34060-50-30-20-20-30-50v-20l30-50 20-20 50-30h90l50 30 20 20 30 50v20l-30 50-20 20-50 30h-90l-50 20-20 20-30 50v100l30 40 20 30 50 20h90l50-20 20-30 30-40v-100l-30-50-20-20-50-20"/><path d="m91030 35230 70 20h120l50-20 20-30 20-40v-50l-20-50-20-20-50-30-100-20-50-20-20-30-20-50v-40l20-50 20-20 50-30h120l70 30"/><path d="m91600 35250-50-20-20-30-30-40v-150l30-40 20-30 50-20h70l50 20 20 30 30 40v150l-30 40-20 30-50 20z"/><path d="m92190 34920v330"/><path d="m91980 34920v260l20 50 50 20h70l50-20 20-30"/><path d="m92430 35250v-330"/><path d="m92430 35010 30-40 20-30 50-20h40"/><path d="m92960 35230-50 20h-100l-40-20-30-30-20-40v-150l20-40 30-30 40-20h100l50 20"/><path d="m93360 35230-50 20h-90l-50-20-20-50v-190l20-50 50-20h90l50 20 20 50v50l-230 40"/><path d="m93600 35060h380"/></g><g fill="#008400" stroke="#008400"><path d="m78500 41000h12000"/><path d="m78500 25000h12000"/><path d="m90500 29500v-4500"/><path d="m90500 35500v5500"/></g></g></g></g><path d="m44000 24000 4000 2000-4000 2000z" fill="#ffffc2" fill-opacity=".6" fill-rule="evenodd"/><g stroke-linecap="round" stroke-linejoin="round"><path d="m44000 24000 4000 2000-4000 2000z" fill="none" stroke="#840000" stroke-width="100"/><g stroke-width="60"><g fill="#840000" fill-opacity="0" stroke="#840000"><path d="m48000 26000h1000"/><path d="m48640 25870h-290"/><path d="m48500 25870v-500l-50 70-50 50-50 20"/><path d="m44000 27000h-1000"/></g><path d="m44190 27030h390" fill="none" stroke="#008484"/><g fill-opacity="0"><g fill="#840000" stroke="#840000"><path d="m43350 26420 30-20 40-30h120l50 30 20 20 30 50v40l-30 80-280 280h310"/><path d="m44000 25000h-1000"/></g><g fill="#008484" stroke="#008484"><path d="m44190 25030h390"/><path d="m44380 25220v-380"/></g><g fill="#840000" stroke="#840000"><path d="m43330 24370h310l-170 190h70l50 30 20 20 30 50v120l-30 40-20 30-50 20h-140l-50-20-20-30"/><path d="m46000 27000v2000"/></g></g></g><g fill="#008484" fill-opacity="0" stroke="#008484" stroke-width="30"><path d="m45820 26930v-190"/><path d="m46080 26890 10-30v-40l-10-20-10-10-20-10h-20l-20 10-10 10-10 20-10 30-10 20-10 10-20 10h-20l-20-10v-10l-10-20v-40l10-30"/><path d="m45820 26740v-210"/><path d="m46090 26690h-200"/><path d="m45980 26690v-110"/><path d="m46090 26580h-200"/><path d="m45820 26530v-200"/><path d="m46090 26480h-200v-50l10-20 10-20 20-10 40-10h30l40 10 20 10 20 20 10 20z"/><path d="m45820 26330v-210"/><path d="m46090 26280h-200l200-110h-200"/><path d="m45820 26120v-150"/><path d="m46100 26120v-150"/><path d="m45820 25970v-170"/><path d="m46030 25930v-100"/><path d="m46090 25950-200-70 200-60"/></g><g stroke-width="60"><path d="m45370 27900v100l30 40 20 30 70 40 100 30h190l40-30 30-20 20-50v-90l-20-50-30-20-40-30h-120l-50 30-20 20-30 50v90l30 50 20 20 50 30" fill="none" stroke="#840000"/><g fill="#008484" fill-opacity="0" stroke="#008484"><path d="m45400 22070v410l20 40 30 30 50 20h90l50-20 20-30 30-40v-410"/><path d="m46190 22570h-290"/><path d="m46040 22570v-500l-40 70-50 50-50 20"/><path d="m46380 22430h230"/><path d="m46330 22570 170-500 160 500"/><path d="m44100 22980h290"/><path d="m44250 23480v-500"/><path d="m44790 23480h-240v-500"/><path d="m44890 22980 160 500 170-500"/><path d="m45360 23030 30-20 50-30h110l50 30 30 20 20 50v40l-20 80-290 280h310"/><path d="m45820 22980h310l-170 190h70l50 30 20 20 30 50v120l-30 40-20 30-50 20h-140l-50-20-20-30"/><path d="m46290 22980h340l-220 500"/><path d="m46770 22980h310l-170 190h70l50 30 20 20 30 50v120l-30 40-20 30-50 20h-140l-50-20-20-30"/><path d="m47290 23480v-500"/><path d="m47530 23480v-500l290 500v-500"/></g></g></g><path d="m44000 45000 4000 2000-4000 2000z" fill="#ffffc2" fill-opacity=".6" fill-rule="evenodd"/><g stroke-linecap="round" stroke-linejoin="round"><path d="m44000 45000 4000 2000-4000 2000z" fill="none" stroke="#840000" stroke-width="100"/><g stroke-width="60"><path d="m44000 46000h-1000" fill="none" stroke="#840000"/><g fill="#008484" fill-opacity="0" stroke="#008484"><path d="m44190 46030h390"/><path d="m44380 46220v-380"/></g><g fill="#840000" fill-opacity="0" stroke="#840000"><path d="m43400 45870h-290"/><path d="m43260 45870v-500l-50 70-50 50-50 20"/><path d="m43880 45870h-290"/><path d="m43730 45870v-500l-40 70-50 50-50 20"/><path d="m44000 48000h-1000"/></g><path d="m44190 48030h390" fill="none" stroke="#008484"/><g fill="#840000" fill-opacity="0" stroke="#840000"><path d="m43400 47870h-290"/><path d="m43260 47870v-500l-50 70-50 50-50 20"/><path d="m43590 47420 20-20 50-30h120l50 30 20 20 30 50v40l-30 80-280 280h310"/><path d="m48000 47000h1000"/><path d="m48400 46870h-290"/><path d="m48260 46870v-500l-50 70-50 50-50 20"/><path d="m48570 46370h310l-170 190h70l50 30 20 20 30 50v120l-30 40-20 30-50 20h-140l-50-20-20-30"/><path d="m46000 48000v2000"/></g></g><g fill="#008484" fill-opacity="0" stroke="#008484" stroke-width="30"><path d="m45820 47930v-190"/><path d="m46080 47890 10-30v-40l-10-20-10-10-20-10h-20l-20 10-10 10-10 20-10 30-10 20-10 10-20 10h-20l-20-10v-10l-10-20v-40l10-30"/><path d="m45820 47740v-210"/><path d="m46090 47690h-200"/><path d="m45980 47690v-110"/><path d="m46090 47580h-200"/><path d="m45820 47530v-200"/><path d="m46090 47480h-200v-50l10-20 10-20 20-10 40-10h30l40 10 20 10 20 20 10 20z"/><path d="m45820 47330v-210"/><path d="m46090 47280h-200l200-110h-200"/><path d="m45820 47120v-150"/><path d="m46100 47120v-150"/><path d="m45820 46970v-200"/><path d="m45980 46850 10-20 10-10 20-10h30l20 10 10 10 10 10v80h-200v-70l10-20 20-10h20l20 10h10l10 20v70"/></g><g stroke-width="60"><path d="m45870 49090v-90l-20-50-30-30-70-40-90-30h-190l-50 30-20 20-30 50v90l30 50 20 20 50 30h120l40-30 30-20 20-50v-90l-20-50-30-20-40-30" fill="none" stroke="#840000"/><g fill="#008484" fill-opacity="0" stroke="#008484"><path d="m45360 43070v410l30 40 20 30 50 20h90l50-20 30-30 20-40v-410"/><path d="m46150 43570h-290"/><path d="m46010 43570v-500l-50 70-50 50-50 20"/><path d="m46530 43310 70 20 30 30 20 40v80l-20 40-30 30-50 20h-190v-500h170l50 30 20 20 30 50v40l-30 50-20 30-50 20h-170"/><path d="m44100 43980h290"/><path d="m44250 44480v-500"/><path d="m44790 44480h-240v-500"/><path d="m44890 43980 160 500 170-500"/><path d="m45360 44030 30-20 50-30h110l50 30 30 20 20 50v40l-20 80-290 280h310"/><path d="m45820 43980h310l-170 190h70l50 30 20 20 30 50v120l-30 40-20 30-50 20h-140l-50-20-20-30"/><path d="m46290 43980h340l-220 500"/><path d="m46770 43980h310l-170 190h70l50 30 20 20 30 50v120l-30 40-20 30-50 20h-140l-50-20-20-30"/><path d="m47290 44480v-500"/><path d="m47530 44480v-500l290 500v-500"/></g><path d="m29000 67000v-1500" fill="none" stroke="#840000"/><g fill-opacity="0"><g fill="#008484" stroke="#008484"><path d="m28720 68080 500-170-500-170"/><path d="m29030 67580v-390"/><path d="m29220 67380h-380"/></g><g fill="#840000" stroke="#840000"><path d="m28870 66340v290"/><path d="m28870 66480h-500l70 50 50 50 20 50"/><path d="m28540 65910h330"/><path d="m28350 66030 350 120v-310"/><path d="m29000 70000v1500"/></g><g fill="#008484" stroke="#008484"><path d="m28720 69870 500-170-500-170"/><path d="m29030 69370v-380"/></g><g fill="#840000" stroke="#840000"><path d="m28540 70650h330"/><path d="m28350 70770 350 120v-310"/></g><g fill="#008484" stroke="#008484"><path d="m29720 67780v410l30 40 20 30 50 20h90l50-20 30-30 20-40v-410"/><path d="m30510 68280h-290"/><path d="m30370 68280v-500l-50 70-50 50-50 20"/><path d="m31010 68230-20 30-80 20h-40l-70-20-50-50-30-50-20-90v-70l20-100 30-50 50-40 70-30h40l80 30 20 20"/><path d="m29650 68690h290"/><path d="m29800 69190v-500"/><path d="m30340 69190h-240v-500"/><path d="m30440 68690 160 500 170-500"/><path d="m30910 68740 30-20 50-30h110l50 30 30 20 20 50v40l-20 80-290 280h310"/><path d="m31370 68690h310l-170 190h70l50 30 20 20 30 50v120l-30 40-20 30-50 20h-140l-50-20-20-30"/><path d="m31840 68690h340l-220 500"/><path d="m32320 68690h310l-170 190h70l50 30 20 20 30 50v120l-30 40-20 30-50 20h-140l-50-20-20-30"/><path d="m32840 69190v-500"/><path d="m33080 69190v-500l290 500v-500"/></g></g></g><g stroke="#008400"><g fill="#008400"><g fill-opacity="0" stroke-width="60"><path d="m26000 69000v2500"/><path d="m26000 65000v500"/><path d="m29000 65500h-3000"/></g><circle cx="26000" cy="65500" r="200" stroke-width="100"/><g fill-opacity="0" stroke-width="60"><path d="m26000 65500v2500"/><path d="m29000 71500h-3000"/></g><circle cx="26000" cy="71500" r="200" stroke-width="100"/><g fill-opacity="0" stroke-width="60"><path d="m26000 71500v500"/><path d="m35000 65000v500"/><path d="m35000 70000v1500"/><path d="m29000 65500h6000"/></g><circle cx="29000" cy="65500" r="200" stroke-width="100"/><circle cx="35000" cy="65500" r="200" stroke-width="100"/><g fill-opacity="0" stroke-width="60"><path d="m35000 65500v1500"/><path d="m29000 71500h6000"/></g><circle cx="29000" cy="71500" r="200" stroke-width="100"/><circle cx="35000" cy="71500" r="200" stroke-width="100"/><g fill-opacity="0" stroke-width="60"><path d="m35000 71500v500"/><path d="m12500 32000h33500"/><path d="m12500 59500h33500"/><path d="m12500 32000v9000"/><path d="m12500 43000v16500"/><path d="m48000 30000h-2000"/></g><circle cx="46000" cy="30000" r="200" stroke-width="100"/><g fill-opacity="0" stroke-width="60"><path d="m46000 30000v-1000"/><path d="m48000 51000h-2000"/></g><circle cx="46000" cy="51000" r="200" stroke-width="100"/></g><path d="m46000 51000v-1000" fill="none" stroke-width="60"/></g><path d="m52000 52000v500h500l-500 500-500-500h500" fill="none" stroke="#840000" stroke-width="60"/><g fill-opacity="0"><g stroke-width="60"><g fill="#008484" stroke="#008484"><path d="m51660 53500-40-30h-70l-80 30-40 40-30 50-20 100v70l20 90 30 50 40 50 80 20h40l70-20 30-30v-160h-100"/><path d="m51900 53970v-500l290 500v-500"/><path d="m52430 53970v-500h120l70 30 40 40 30 50 20 100v70l-20 90-30 50-40 50-70 20z"/></g><g fill="#008400" stroke="#008400"><path d="m51000 51000h1000"/><path d="m52000 51000v1000"/><path d="m51000 30000h1000"/><path d="m52000 30000v1000"/></g><g fill="#840000" stroke="#840000"><circle cx="14000" cy="40250" r="250"/><path d="m14000 41000v-500"/></g><g fill="#008484" stroke="#008484"><path d="m13500 39010 170 500 160-500"/><path d="m14000 39510v-500h120l70 30 50 40 20 50 20 100v70l-20 90-20 50-50 50-70 20z"/><path d="m14500 39510v-500h120l70 30 50 40 20 50 20 100v70l-20 90-20 50-50 50-70 20z"/></g><g fill="#008400" stroke="#008400"><path d="m14000 41000v1000"/><path d="m14000 42000h-1500"/><path d="m97000 35000v22500"/><path d="m97000 20500v9500"/></g></g><g fill="#840000" stroke="#840000" stroke-width="200"><path d="m45700 19200v1600"/><path d="m46300 19200v1600"/></g><g stroke-width="60"><g fill="#840000" stroke="#840000"><path d="m46400 20000h1100"/><path d="m45600 20000h-1100"/></g><g fill="#008484" stroke="#008484"><path d="m45910 17670-20 30-70 20h-50l-70-20-50-50-20-50-30-90v-70l30-100 20-50 50-40 70-30h50l70 30 20 20"/><path d="m46100 17270 30-20 40-30h120l50 30 20 20 30 50v40l-30 80-280 280h310"/><path d="m45440 18630h-290"/><path d="m45290 18630v-500l-40 70-50 50-50 20"/><path d="m45750 18130h40l50 30 20 20 30 50 20 90v120l-20 100-30 40-20 30-50 20h-40l-50-20-30-30-20-40-20-100v-120l20-90 20-50 30-20z"/><path d="m46220 18130h50l50 30 20 20 20 50 30 90v120l-30 100-20 40-20 30-50 20h-50l-50-20-20-30-20-40-30-100v-120l30-90 20-50 20-20z"/><path d="m46600 18300v500"/><path d="m46600 18320 50-20h100l40 20 30 30 20 40v150l-20 40-30 30-40 20h-100l-50-20"/></g></g></g><circle cx="52000" cy="26000" fill="#008400" r="200" stroke="#008400" stroke-width="100"/><g fill="#008400" fill-opacity="0" stroke="#008400" stroke-width="60"><path d="m52000 26000h-3000"/><path d="m83500 34000v2000"/></g><path d="m55500 33600h2000v800h-2000z" fill="none" stroke="#840000" stroke-width="100"/><g stroke-width="60"><g fill="#840000" fill-opacity="0" stroke="#840000"><path d="m57500 34000h500"/><path d="m55500 34000h-500"/></g><g fill="#008484" fill-opacity="0" stroke="#008484"><path d="m56170 32170-160-240"/><path d="m55890 32170v-500h190l50 30 20 20 20 50v70l-20 50-20 20-50 20h-190"/><path d="m56650 32170h-290"/><path d="m56510 32170v-500l-50 70-50 50-50 20"/><path d="m56820 31670h310l-170 190h70l50 30 20 20 30 50v120l-30 40-20 30-50 20h-140l-50-20-20-30"/><path d="m56150 33080h-290"/><path d="m56010 33080v-500l-50 70-50 50-50 20"/><path d="m56320 32580h310l-170 190h70l50 30 20 20 30 50v120l-30 40-20 30-50 20h-140l-50-20-20-30"/><path d="m56840 33080v-500"/><path d="m57130 33080-220-280"/><path d="m57130 32580-290 290"/></g><path d="m55000 34000h-14500" fill="none" stroke="#008400"/></g><path d="m35100 16500h800v2000h-800z" fill="none" stroke="#840000" stroke-width="100"/><g fill="#840000" fill-opacity="0" stroke="#840000" stroke-width="60"><path d="m35500 16500v-500"/><path d="m35500 18500v500"/></g><g fill="#008484" fill-opacity="0" stroke="#008484" stroke-width="60"><path d="m36620 17280-160-240"/><path d="m36340 17280v-500h190l50 30 20 20 20 50v70l-20 50-20 20-50 20h-190"/><path d="m37100 17280h-290"/><path d="m36960 17280v-500l-50 70-50 50-50 20"/><path d="m37530 16950v330"/><path d="m37410 16760-120 350h310"/><path d="m36560 17860v330"/><path d="m36440 17670-120 350h310"/><path d="m36820 18190v-500l170 360 160-360v500"/><path d="m37340 17690h340l-220 500"/></g><path d="m40100 16500h800v2000h-800z" fill="none" stroke="#840000" stroke-width="100"/><g fill-opacity="0" stroke-width="60"><g fill="#840000" stroke="#840000"><path d="m40500 16500v-500"/><path d="m40500 18500v500"/></g><g fill="#008484" stroke="#008484"><path d="m41620 17280-160-240"/><path d="m41340 17280v-500h190l50 30 20 20 20 50v70l-20 50-20 20-50 20h-190"/><path d="m42100 17280h-290"/><path d="m41960 17280v-500l-50 70-50 50-50 20"/><path d="m42550 16780h-240l-20 240 20-20 50-30h120l50 30 20 20 30 50v120l-30 40-20 30-50 20h-120l-50-20-20-30"/><path d="m41560 17860v330"/><path d="m41440 17670-120 350h310"/><path d="m41820 18190v-500l170 360 160-360v500"/><path d="m42340 17690h340l-220 500"/></g><g fill="#008400" stroke="#008400"><path d="m47500 20000h4500"/><path d="m52000 20000v6000"/><path d="m44500 20000h-4000"/></g></g><g stroke="#840000"><path d="m37000 13100h2000v800h-2000z" fill="none" stroke-width="100"/><g stroke-width="60"><path d="m38000 12500v400" fill="none"/><g fill="#840000"><path d="m38000 13050-200-450h400z" fill-rule="evenodd"/><g fill-opacity="0"><path d="m37000 13500h-500"/><path d="m36890 13370h-290"/><path d="m36750 13370v-500l-50 70-50 50-50 20"/><path d="m38000 12500v-500"/><path d="m37420 12390-20-30-30-40v-120l30-50 20-20 50-30h40l80 30 280 280v-310"/><path d="m39000 13500h500"/><path d="m39080 12870h310l-170 190h70l50 30 20 20 30 50v120l-30 40-20 30-50 20h-140l-50-20-20-30"/></g></g></g></g><g fill="#008484" fill-opacity="0" stroke="#008484" stroke-width="60"><path d="m37700 14830-170-240"/><path d="m37410 14830v-500h190l50 30 20 20 30 50v70l-30 50-20 20-50 20h-190"/><path d="m37840 14330 170 500 160-500"/><path d="m38600 14830h-280"/><path d="m38460 14830v-500l-50 70-50 50-40 20"/><path d="m37560 15290 20-20 50-30h120l40 30 30 20 20 50v40l-20 80-290 280h310"/><path d="m38060 15740v-500l160 360 170-360v500"/></g><g stroke="#008400"><path d="m40500 27000v-7000" fill="none" stroke-width="60"/><g fill="#008400"><circle cx="40500" cy="27000" r="200" stroke-width="100"/><g fill-opacity="0" stroke-width="60"><path d="m40500 27000h2500"/><path d="m40500 27000v7000"/><path d="m58000 37000h5500"/><path d="m40500 46000v-9000"/><path d="m40500 37000h14500"/></g><circle cx="40500" cy="46000" r="200" stroke-width="100"/><g fill-opacity="0" stroke-width="60"><path d="m35500 19000v6000"/><path d="m40500 19000v1000"/></g><circle cx="40500" cy="20000" r="200" stroke-width="100"/><g fill-opacity="0" stroke-width="60"><path d="m40500 16000v-2500"/><path d="m40500 13500h-1000"/><path d="m36500 13500h-1000"/><path d="m35500 13500v2500"/></g></g></g><g stroke-width="60"><g fill="#840000" fill-opacity="0" stroke="#840000"><circle cx="38000" cy="10250" r="250"/><path d="m38000 11000v-500"/></g><g fill="#008484" fill-opacity="0" stroke="#008484"><path d="m37500 9010 170 500 160-500"/><path d="m38000 9510v-500h120l70 30 50 40 20 50 20 100v70l-20 90-20 50-50 50-70 20z"/><path d="m38500 9510v-500h120l70 30 50 40 20 50 20 100v70l-20 90-20 50-50 50-70 20z"/></g><path d="m38000 11000v1000" fill="none" stroke="#008400"/></g></g></svg>