<svg width="429" height="70" xmlns="http://www.w3.org/2000/svg">

 <g>
  <title>Layer 1</title>
  <path fill-rule="evenodd" fill="#ffffff" d="m45.54,24.2a3.472,3.472 0 0 0 0,0.905l-0.063,0l0,0.323l-0.064,0l-0.129,0.388l-0.065,0q0,0.065 0,0.129l-0.129,0.065l-0.258,0.324l-0.258,0.065c0,0.022 0,0.043 0,0.065l-0.258,0.065q0,0.032 0,0.065l-0.316,0q0,0.032 0,0.065l-0.456,0l0,-0.064l-0.451,-0.064l0,-0.065l-0.129,0l0,-0.066l-0.129,0l-0.065,-0.129l-0.129,0l-0.194,-0.259l-0.064,0q0,-0.065 0,-0.129l-0.129,-0.064l-0.065,-0.259l-0.064,0q0,-0.1 0,-0.194a1.742,1.742 0 0 1 1.158,-2.2l0.645,-0.065l0,0.065l0.387,0m-6.181,8.348l-1.034,-1.033a1.061,1.061 0 0 1 -0.516,-0.776a2.593,2.593 0 0 1 -0.065,-1.1q0,-1.552 0,-3.1a2.979,2.979 0 0 0 -0.066,-1.229q0,-0.065 0,-0.129l-0.193,-0.064c0,-0.021 0,-0.043 0,-0.065l-0.322,-0.258a2.246,2.246 0 0 1 -0.324,-1.552l0.064,0l0.064,-0.388l0.129,-0.065q0,-0.065 0,-0.129l0.129,-0.069l0.322,-0.388l0.387,-0.13c0,-0.022 0,-0.043 0,-0.065l0.191,0l0,-0.065l0.322,0a1.87,1.87 0 0 1 0.9,0.129c0,0.021 0,0.043 0,0.065l0.129,0l0.065,0.129l0.129,0l0.194,0.258l0.065,0q0,0.065 0,0.129l0.129,0.065q0,0.065 0,0.129l0.067,0l0.065,0.259l0.065,0q0,0.129 0,0.259l0.064,0a1.815,1.815 0 0 1 -0.257,1.164q0,0.065 0,0.129l-0.709,0.647q0,2.49 0,4.98l0.072,0a3.961,3.961 0 0 0 0.968,1.034m6.511,0.253l-12.18,3.244l-2.129,-2.068l-0.006,-7.308l-0.069,0a1.388,1.388 0 0 0 -0.065,-0.259l-0.065,0l-0.065,-0.128l-0.128,0l-0.194,-0.259l-0.064,0q0,-0.065 0,-0.129l-0.129,-0.064q0,-0.065 0,-0.129l-0.065,0l-0.065,-0.388l-0.064,0q0,-0.194 0,-0.388a1.773,1.773 0 0 1 1.288,-1.747l0.387,0a1.567,1.567 0 0 1 1.354,0.581l0.129,0.065l0,0.129l0.129,0.064l0.065,0.323l0.064,0a2.312,2.312 0 0 1 0.065,0.905l-0.065,0q0,0.129 0,0.259l-0.451,0.712l-0.193,0.065c-0.1,0.092 -0.151,0.238 -0.258,0.323l0.006,6.6l0.064,0l0.066,0.259l0.452,0.388l1.161,1.163l2.9,2.972l1.419,1.357m5.847,-21.994l-0.129,-0.129q0,-0.065 0,-0.129l-0.061,0l-0.194,-0.258l-0.193,0l0,-0.07l-9.992,0.009l-2.449,0a3.442,3.442 0 0 0 -1.1,0.066l-0.702,0.649q0,0.065 0,0.129l-0.837,0.777l-0.58,0.647l-0.322,0.259l0,0.129l-0.067,0l-0.129,0.194a14.771,14.771 0 0 0 -1.61,1.683l-0.129,0.065a0.776,0.776 0 0 0 -0.326,0.583a1.45,1.45 0 0 0 -0.064,0.711q0,0.938 0,1.876q0,3.751 0.006,7.5l-2.19,2.265l-4.759,4.728l-1.61,1.618a3.6,3.6 0 0 1 -0.709,0.712l-12.666,0.011c-2.8,0 -1.193,-1.551 0,-1.552l6.67,-0.006l3.868,0a4.318,4.318 0 0 0 1.547,-0.066l5.732,-5.826l2.512,-2.46l0.064,-0.776q0,-0.841 0,-1.681q0,-3.912 -0.007,-7.826l0.065,0l0.064,-0.259l0.322,-0.259l0.773,-0.841l0.258,-0.194q0,-0.065 0,-0.129l0.9,-0.842l0.58,-0.647l0.258,-0.194l0.064,-0.194l1.675,-1.618l0,-0.133l0.708,-0.647l10.572,-0.009l2.707,0a2.182,2.182 0 0 0 0.967,-0.066a2.013,2.013 0 0 0 0.644,-0.518l0.064,-0.129l0.129,0l0,-0.068l0.258,-0.065c0,-0.021 0,-0.043 0,-0.065l0.258,0l0,-0.064c0.261,-0.078 0.066,1.164 0,1.164c0,0.021 0,0.043 0,0.065a0.489,0.489 0 0 0 -0.258,0.324m-2.117,11.836l0.129,0l0.065,0.134a0.652,0.652 0 0 0 0.838,-0.324a0.7,0.7 0 0 0 0.064,-0.647l-0.194,-0.129l0,-0.069l-0.129,0l0,-0.065a0.717,0.717 0 0 0 -0.838,0.324l-0.064,0q0,0.291 0,0.582a0.2,0.2 0 0 1 0.129,0.194zm-6.4,-19.784l-0.193,0.259l-0.063,0q0,0.065 0,0.129l-1.224,1.165a1.184,1.184 0 0 1 -0.837,0.583a1.811,1.811 0 0 1 -0.838,0.065l-2.127,0a1.993,1.993 0 0 0 -0.9,0.065l-0.132,0l-1.03,1.1l-3.091,3.042a6.873,6.873 0 0 0 -0.064,1.164l-0.065,0q0,0.1 0,0.194l-0.064,0l-0.129,0.388l-0.386,0.324l-0.064,0.129l-0.387,0.13l0,0.065l-0.258,0a1.5,1.5 0 0 1 -1.677,-0.581l-0.194,-0.129q0,-0.065 0,-0.129l-0.062,0q0,-0.065 0,-0.129l-0.066,0q0,-0.1 0,-0.194a1.345,1.345 0 0 1 -0.13,-0.841l0.064,0l0.065,-0.381l0.451,-0.647l0.129,0l0.064,-0.129l0.387,-0.13l0,-0.068l0.193,0l0,-0.065l1.031,0a1.986,1.986 0 0 1 0.386,-0.388l0.9,-0.906l2.512,-2.589l0.514,-0.455l0.2,-0.259l0.129,0q0,-0.032 0,-0.065a0.78,0.78 0 0 0 0.193,-0.13l4,0l2.512,-2.46a5.918,5.918 0 0 0 0.063,-1.1m1.303,19.916l-0.067,0l0,-0.194a1.258,1.258 0 0 0 -0.387,-0.258a0.686,0.686 0 0 0 -0.58,0l-0.129,0.194l-0.065,0l-0.064,0.647c0.192,0.128 0.044,0.092 0.129,0.194l0.193,0.064l0.07,0.128l0.451,0c0.073,-0.074 0,-0.026 0.129,-0.065a1.224,1.224 0 0 0 0.32,-0.71zm-28.614,11.666l2.449,0a3.445,3.445 0 0 0 1.1,-0.066a1.313,1.313 0 0 0 0.322,-0.324c0.3,-0.3 0.6,-0.6 0.9,-0.906l2.383,-2.33l0.58,-0.647l1.739,-1.683l0.193,-0.259a2.571,2.571 0 0 0 0.773,-0.841a2.587,2.587 0 0 0 0.063,-1.1q0,-1.52 0,-3.04q-0.005,-6.143 -0.011,-12.288a3.061,3.061 0 0 1 0.833,-0.907l1.868,-1.877c2.662,-2.7 1.9,-4.225 0.667,-2.973l-4.92,4.982q0.007,8.213 0.014,16.427a4.882,4.882 0 0 1 -1.095,1.165l-2.061,2.136l-0.515,0.453l-1.481,1.553l-0.193,0.13a2.259,2.259 0 0 1 -0.773,0.712a1.8,1.8 0 0 1 -0.838,0.065l-2.127,0m23.52,-10.109a0.6,0.6 0 0 0 -0.323,-0.323a0.688,0.688 0 0 0 -0.58,-0.129a1.983,1.983 0 0 0 -0.258,0.259c-0.131,0.121 0,0.033 -0.064,0.194a0.557,0.557 0 0 0 0.387,0.776l0,0.065l0.387,0a2.422,2.422 0 0 0 0.322,-0.324a0.686,0.686 0 0 0 0.129,-0.517l0,-0.001zm-18.965,-15.116q0,5.076 0.009,10.154q0,1.261 0,2.522a2.2,2.2 0 0 0 0.065,0.97a0.814,0.814 0 0 0 0.387,0.388l0.452,0.711l0,0.323l0.064,0q0,0.259 0,0.517l-0.061,0q0,0.129 0,0.259l-0.065,0q0,0.1 0,0.194l-0.062,0q0,0.065 0,0.129l-0.129,0.065q0,0.065 0,0.129l-0.129,0.065l-0.258,0.324l-0.13,0l-0.064,0.129l-0.129,0q0,0.032 0,0.065l-0.193,0l0,0.065l-0.258,0c0,0.022 0,0.043 0,0.065a2.121,2.121 0 0 1 -1.677,-0.645q0,-0.065 0,-0.129l-0.133,-0.065q0,-0.065 0,-0.129l-0.06,0q0,-0.065 0,-0.129l-0.065,0c-0.173,-1.035 -0.151,-0.776 -0.065,-0.776a2.67,2.67 0 0 1 0.128,-0.712l0.129,-0.065q0,-0.065 0,-0.129l0.064,0a0.538,0.538 0 0 0 0.129,-0.259l0.129,0a4.474,4.474 0 0 1 0.322,-0.324q0,-2.037 0,-4.074q0,-5.076 -0.009,-10.154l0.064,0l0.064,-0.323l2.383,-2.33m10.579,8.2a0.4,0.4 0 0 0 -0.258,-0.194a0.585,0.585 0 0 0 -0.516,-0.129l0,0.065l-0.196,0l-0.193,0.259c-0.368,0.339 0.152,1.16 0.71,0.969a1.357,1.357 0 0 0 0.451,-0.388q-0.001,-0.287 -0.001,-0.578l0.003,-0.004zm-11.597,10.167l-0.065,0q0,-0.1 0,-0.194a1.582,1.582 0 0 0 -0.451,-0.323c0,-0.022 0,-0.043 0,-0.065l-0.258,0l0,0.066l-0.193,0l0,0.065a0.489,0.489 0 0 0 -0.258,0.324l-0.064,0q0,0.259 0,0.517a0.7,0.7 0 0 0 0.323,0.258a0.546,0.546 0 0 0 0.838,-0.259l0.065,0l0.063,-0.389zm-7.236,-18.878m2.771,-0.52l-6.5,6.6m6.83,2.131a2.118,2.118 0 0 1 -0.965,2.006q0,2.1 0,4.2a3.494,3.494 0 0 1 -1.418,0.131l-2.9,0c0,0.021 0,0.043 0,0.065a0.794,0.794 0 0 0 -0.386,0.388a2.059,2.059 0 0 1 -1.676,0.519c0,-0.021 0,-0.043 0,-0.065l-0.387,-0.064l-0.065,-0.129l-0.126,0l-0.065,-0.129l-0.128,0c0,-0.022 0,-0.043 0,-0.065l-0.194,-0.124q0,-0.065 0,-0.129l-0.129,-0.065l-0.064,-0.258l-0.065,0q0,-0.065 0,-0.129l-0.064,0q0,-0.129 0,-0.259l-0.065,0a2.049,2.049 0 0 1 0.643,-1.747a2.058,2.058 0 0 1 2.192,0l0.194,0.259l0.128,0.062q0,0.065 0,0.129l0.129,0.065c0,0.021 0,0.043 0,0.065l0.774,0.064a13.591,13.591 0 0 0 2,-0.066l0.064,-0.194a2.988,2.988 0 0 0 0.063,-1.229a3.742,3.742 0 0 0 -0.066,-1.358l-0.384,-0.322a1.712,1.712 0 0 1 -0.517,-1.358q0,-0.194 0,-0.388a1.766,1.766 0 0 1 2.449,-1.1l0.258,0.064l0.129,0.194l0.125,0l0.064,0.188l0.192,0.132q0,0.065 0,0.129l0.066,0a0.5,0.5 0 0 0 0.129,0.258q0,0.129 0,0.259l0.065,0l0,0.001zm-3.339,15.201a2.593,2.593 0 0 1 1.1,-0.906l0.318,0q0,-0.032 0,-0.065l0.322,0c0,0.021 0,0.043 0,0.065l0.387,0c0,0.022 0,0.043 0,0.065l0.387,0.129q0,0.032 0,0.065l0.129,0l0.258,0.323l0.129,0.065q0,0.065 0,0.129l0.129,0.063a2.448,2.448 0 0 1 0.194,1.229a1.751,1.751 0 0 1 -2.255,1.3l-0.193,0q0,-0.032 0,-0.065l-0.126,0l-0.516,-0.388q0,-0.065 0,-0.129l-0.068,0l-0.129,-0.194l-0.129,0c0,-0.022 0,-0.043 0,-0.065m1.142,-16.949l-0.06,0.258l-0.065,0a1.111,1.111 0 0 0 0.065,0.582a0.769,0.769 0 0 0 0.838,0.258l0.064,-0.13c0.164,-0.118 0.122,0.071 0.193,-0.194l0.065,0l0.064,-0.453l-0.064,0q0,-0.1 0,-0.194l-0.258,-0.194c0,-0.022 0,-0.043 0,-0.065l-0.194,0c0,-0.022 0,-0.043 0,-0.065l-0.258,0c0,0.022 0,0.043 0,0.065l-0.19,0q0,0.032 0,0.065l-0.2,0.067zm1.178,15.973a0.743,0.743 0 0 0 -0.387,-0.388a0.776,0.776 0 0 0 -0.645,0l-0.064,0.129l-0.129,0.065l-0.064,0.259l-0.065,0a0.686,0.686 0 0 0 0.645,0.711a0.589,0.589 0 0 0 0.451,-0.065a1.115,1.115 0 0 0 0.258,-0.711zm-4,-5.882a1.515,1.515 0 0 1 0.322,-0.324l0.256,-0.319a1.925,1.925 0 0 1 1.1,-0.26l0.382,0q0,0.032 0,0.065l0.194,0c0,0.021 0,0.043 0,0.065l0.129,0c0,0.022 0,0.043 0,0.065l0.129,0l0.065,0.129l0.128,0l0.065,0.129l0.258,0.194q0,0.065 0,0.129l0.129,0.065q0,0.065 0,0.129l0.065,0l0.065,0.388l0.064,0q0,0.356 0,0.711l-0.064,0q0,0.129 0,0.259a1.758,1.758 0 0 1 -2,1.1l-0.255,0c0,-0.021 0,-0.043 0,-0.065l-0.129,0q0,-0.032 0,-0.065l-0.129,0c0,-0.022 0,-0.043 0,-0.065l-0.129,0l-0.065,-0.129l-0.129,0c0,-0.022 0,-0.043 0,-0.065l-0.258,-0.194q0,-0.065 0,-0.129c-0.049,-0.067 -0.2,-0.114 -0.258,-0.194m2.32,-0.972l-0.064,0q0,-0.065 0,-0.129l-0.069,0q0,-0.065 0,-0.129l-0.19,-0.067l-0.065,-0.129l-0.515,0c-0.073,0.074 0,0.026 -0.129,0.065l-0.322,0.453a0.158,0.158 0 0 0 0.065,0.194q0,0.1 0,0.194l0.129,0.064l0.194,0.259l0.193,0a0.5,0.5 0 0 0 0.64,-0.26a0.686,0.686 0 0 0 0.133,-0.517l0,0.002zm-3.421,-5.108l-0.258,-0.453l-0.129,0c-0.331,-0.413 -1.172,0.188 -0.966,0.712l0.064,0q0,0.065 0,0.129l0.129,0.065l0.129,0.194a0.919,0.919 0 0 0 0.773,-0.065a2.313,2.313 0 0 0 0.258,-0.582z" class="cls-1" data-name="circuit 1" id="circuit_1"/>
  <path fill-rule="evenodd" fill="#ffffff" d="m381.972,41.762l1.028,1.038a1.061,1.061 0 0 1 0.517,0.776a2.587,2.587 0 0 1 0.066,1.1q0,1.552 0,3.1a2.972,2.972 0 0 0 0.074,1.224l0,0.129l0.193,0.071l0,0.065l0.323,0.258a2.246,2.246 0 0 1 0.324,1.552l-0.064,0c-0.022,0.129 -0.043,0.259 -0.064,0.388l-0.129,0.065l0,0.129l-0.129,0.065l-0.322,0.388l-0.386,0.13l0,0.06l-0.194,0c0,0.022 0,0.043 0,0.065l-0.323,0a1.867,1.867 0 0 1 -0.9,-0.128l0,-0.063l-0.129,0l-0.065,-0.129l-0.129,0l-0.194,-0.258l-0.069,0l0,-0.129l-0.129,-0.064l0,-0.13l-0.061,0c-0.021,-0.086 -0.043,-0.172 -0.065,-0.259l-0.064,0l0,-0.258l-0.065,0a1.812,1.812 0 0 1 0.257,-1.164c0,-0.043 0,-0.086 0,-0.129l0.709,-0.648l-0.006,-4.98l-0.066,0a3.959,3.959 0 0 0 -0.968,-1.034m38.713,-8.755c-0.285,0 -0.55,1.465 -0.835,1.465l-9.395,0.012l-3.868,0a4.318,4.318 0 0 0 -1.547,0.067l-5.73,5.828l-2.511,2.461l-0.063,0.776q0,0.841 0,1.681q0,3.912 0.01,7.825l-0.065,0c-0.021,0.086 -0.043,0.173 -0.064,0.259l-0.322,0.259l-0.773,0.842l-0.257,0.194l0,0.134l-0.9,0.842l-0.58,0.648l-0.257,0.194l-0.065,0.194l-1.674,1.619c0,0.043 0,0.086 0,0.129c5.511,-7.807 -6.806,8.594 -9.573,0.957c-0.308,-0.851 6.267,-1.167 5.365,-1.166a2.179,2.179 0 0 0 -0.967,0.066a2.018,2.018 0 0 0 -0.644,0.518l-0.064,0.13l-0.129,0l0,0.065l-0.258,0.065l0,0.065l-0.258,0l0,0.064a1.667,1.667 0 0 1 -0.967,-0.128a0.739,0.739 0 0 1 -0.322,-0.129l0,-0.064a1.487,1.487 0 0 1 -0.776,-1.486l0,-0.389l0.064,0l0,-0.194l0.07,0c0.042,-0.129 0.085,-0.259 0.128,-0.388l0.386,-0.324l0.065,-0.129l0.386,-0.13l0,-0.069l0.194,0l0,-0.061a2.3,2.3 0 0 1 1.612,0.386l0.129,0.129l0,0.129l0.064,0l0.194,0.258l0.193,0l0,0.065c2.691,0 -4.76,2.5 -2.069,2.5c0.639,0 1.642,-1.638 2.281,-1.639l2.45,0a3.445,3.445 0 0 0 1.1,-0.066l0.708,-0.648l0,-0.133l0.837,-0.777l0.579,-0.648l0.322,-0.259l0,-0.129l0.064,0l0.129,-0.194a14.768,14.768 0 0 0 1.61,-1.683l0.128,-0.065a0.775,0.775 0 0 0 0.322,-0.583a1.452,1.452 0 0 0 0.064,-0.711l0,-1.876l-0.009,-7.5l2.189,-2.266l4.754,-4.729l1.61,-1.619a3.57,3.57 0 0 1 0.708,-0.712c5.052,-0.006 11.175,0.074 16.227,0.068m-33.045,5.256l2.13,2.067l0.009,7.308l0.064,0a1.51,1.51 0 0 0 0.065,0.259l0.065,0l0.064,0.129l0.129,0l0.194,0.259l0.064,0c0,0.043 0,0.086 0,0.129l0.129,0.065l0,0.129l0.064,0c0.022,0.129 0.043,0.259 0.065,0.388l0.065,0l0,0.388a1.774,1.774 0 0 1 -1.287,1.748l-0.387,0a1.567,1.567 0 0 1 -1.354,-0.58l-0.129,-0.065l0,-0.13l-0.129,-0.065c-0.022,-0.108 -0.044,-0.215 -0.065,-0.323l-0.066,0a2.325,2.325 0 0 1 -0.065,-0.905l0.065,0l0,-0.259l0.45,-0.712l0.194,-0.065c0.1,-0.092 0.15,-0.238 0.257,-0.324q0,-3.3 -0.008,-6.6l-0.065,0c-0.021,-0.086 -0.043,-0.172 -0.064,-0.259l-0.452,-0.387l-1.162,-1.163l-2.9,-2.971m0.718,21.386a0.108,0.108 0 0 1 0.064,0.065l0,0.065a0.943,0.943 0 0 0 0.71,0.258l0,-0.061l0.193,0l0,-0.067a0.489,0.489 0 0 0 0.257,-0.324c0.313,-0.326 -0.352,-1.035 -0.839,-0.84a1.683,1.683 0 0 0 -0.386,0.388c-0.003,0.176 -0.003,0.348 -0.002,0.52l0.003,-0.004zm5.974,-30.837l0.71,0.775a2.566,2.566 0 0 0 0.9,0.064l2.063,0l7.542,-0.009l2.32,0a1.806,1.806 0 0 0 0.838,-0.066l0.129,0l0.193,-0.259l0.063,0c0.021,-0.065 0.042,-0.129 0.064,-0.194l0.193,-0.065c0.022,-0.043 0.043,-0.086 0.064,-0.13l0.129,0l0,-0.066l0.258,-0.065l0,-0.065a2.754,2.754 0 0 1 1.225,0l0,0.065l0.258,0.064l0,0.065l0.129,0l0.322,0.388l0.129,0.064c0,0.043 0,0.086 0,0.129l0.129,0.064c0.021,0.129 0.043,0.259 0.065,0.388a1.75,1.75 0 0 1 -1.287,2.2a2.116,2.116 0 0 1 -1.354,-0.257l0,-0.065a0.546,0.546 0 0 0 -0.255,-0.128l0,-0.13l-0.452,-0.388l-10.572,0.013l-2.707,0a2.179,2.179 0 0 1 -0.967,-0.064a2.577,2.577 0 0 1 -0.839,-0.775m5.131,31.619a6.814,6.814 0 0 0 0.063,-1.164l0.065,0l0,-0.19l0.064,0c0.043,-0.129 0.086,-0.259 0.128,-0.388l0.387,-0.324l0.064,-0.129l0.387,-0.13l0,-0.065l0.258,0a1.5,1.5 0 0 1 1.676,0.58l0.194,0.129l0,0.129l0.064,0c0,0.043 0,0.086 0,0.129l0.064,0l0,0.194a1.342,1.342 0 0 1 0.13,0.841l-0.064,0c-0.022,0.129 -0.043,0.259 -0.064,0.388l-0.451,0.647l-0.128,0c-0.021,0.043 -0.042,0.086 -0.064,0.13l-0.387,0.13c0,0.022 0,0.043 0,0.065l-0.194,0l0,0.065l-1.031,0a1.985,1.985 0 0 1 -0.386,0.389l-0.9,0.907m-11.426,-12.856l0.064,0l0,0.194a1.264,1.264 0 0 0 0.388,0.258a0.685,0.685 0 0 0 0.58,0l0.128,-0.194l0.065,0q0.032,-0.323 0.064,-0.647c-0.192,-0.128 -0.045,-0.092 -0.13,-0.194l-0.193,-0.064l-0.065,-0.129l-0.451,0c-0.073,0.074 0,0.026 -0.129,0.065a1.227,1.227 0 0 0 -0.321,0.711zm3.59,-15.979l0.063,-0.906a1.751,1.751 0 0 1 2.062,-1.1l0.258,0l0,0.063l0.258,0.064l0,0.065l0.129,0l0.064,0.129l0.387,0.323c0.044,0.129 0.087,0.259 0.13,0.388l0.064,0c0,0.065 0,0.129 0,0.194l0.064,0c0,0.345 0,0.69 0,1.035l0.065,0l0,0.129l0.774,0.71l2.063,0a1.607,1.607 0 0 0 0.773,-0.066a2.884,2.884 0 0 0 0.838,-0.777c0,-0.345 0,-0.69 0,-1.035a1.746,1.746 0 0 1 2.319,-1.167l0.194,0l0.064,0.129l0.129,0l0.065,0.129l0.129,0l0.129,0.129l0,0.129l0.194,0.129l0,0.129l0.064,0c0.022,0.086 0.044,0.172 0.065,0.259l0.065,0l0,0.259l0.064,0a1.542,1.542 0 0 1 -0.256,1.164l0,0.129l-0.193,0.13c-0.022,0.065 -0.043,0.129 -0.064,0.194l-0.129,0l-0.129,0.194l-0.258,0.065l0,0.065l-0.129,0l0,0.065c-0.287,0.114 -0.98,-0.043 -1.224,0.066l-1.352,1.3l-2.9,0a2.555,2.555 0 0 1 -1.1,-0.063a1.776,1.776 0 0 1 -0.774,-0.646l-0.387,-0.323l-0.194,-0.258l-0.967,0l0,-0.067l-0.258,0l0,-0.064l-0.255,-0.065l0,-0.064l-0.129,0l-0.129,-0.194l-0.129,0c-0.022,-0.065 -0.043,-0.129 -0.065,-0.194l-0.193,-0.129l0,-0.129l-0.061,0a0.564,0.564 0 0 0 -0.129,-0.259c0,-0.086 0,-0.172 0,-0.259l-0.071,0l0.002,0.001zm2.256,0.191c0.022,-0.086 0.043,-0.173 0.065,-0.259l0.064,0q-0.033,-0.323 -0.065,-0.647a1.146,1.146 0 0 0 -0.774,-0.258l-0.386,0.324l0,0.194a0.5,0.5 0 0 0 0.258,0.646c0.122,0.129 0.033,0 0.194,0.064a0.87,0.87 0 0 0 0.644,-0.064zm34.687,5.2l0,0.259l-0.064,0l0,0.194l-0.064,0l0,0.129l-0.129,0.065l0,0.129l-0.129,0.06l-0.259,0.325l-0.129,0l-0.064,0.129l-0.127,0l0,0.065l-0.194,0a1.22,1.22 0 0 1 -0.773,0.13l0,-0.064l-0.322,0l0,-0.064l-0.129,0l0,-0.065l-0.129,0l-0.516,-0.387c0,-0.043 0,-0.086 0,-0.129l-0.064,0l-0.129,-0.194l-0.129,0l0,-0.065l-8.445,0.01l-2.127,0a1.8,1.8 0 0 0 -0.838,0.066a2.269,2.269 0 0 0 -0.773,0.712l-0.193,0.13l-1.48,1.554l-0.516,0.453l-2.06,2.137a4.882,4.882 0 0 0 -1.094,1.165l0.018,14.583q0,0.922 0,1.844c-2.875,2.914 0.531,0.7 -2.344,3.609c-0.837,0.82 2.141,0.052 1.3,0.872c0,0.345 -0.535,-2.4 -0.535,-2.057l-0.064,0c-0.021,0.129 -0.043,0.259 -0.064,0.388l-0.515,0.647a2.068,2.068 0 0 1 -2.192,0l-0.064,-0.129l-0.258,-0.194l0,-0.123l-0.129,-0.064a0.579,0.579 0 0 0 -0.13,-0.259l0,-0.258l-0.064,0a1.839,1.839 0 0 1 1.351,-2.136l1.031,0c2.661,-2.7 -4.24,4.417 -1.579,1.719l1.867,-1.878a3.06,3.06 0 0 0 0.837,-0.906q0,-0.636 0,-1.272q-0.006,-5.508 -0.013,-11.016q0,-1.52 0,-3.04a2.592,2.592 0 0 1 0.063,-1.1a2.57,2.57 0 0 1 0.773,-0.842l0.193,-0.259l1.738,-1.684l0.58,-0.647l2.382,-2.331c0.3,-0.3 0.6,-0.605 0.9,-0.907a1.331,1.331 0 0 1 0.322,-0.324a3.446,3.446 0 0 1 1.1,-0.066l2.449,0l8.638,-0.011a2.716,2.716 0 0 1 1.1,-0.907l0.387,0a0.168,0.168 0 0 1 0.193,-0.065l0,0.065l0.387,0l0,0.065l0.193,0l0,0.065l0.38,0.124l0.259,0.323l0.129,0.065l0,0.129l0.127,0.069m-35.182,11.81a0.6,0.6 0 0 0 0.323,0.323a0.686,0.686 0 0 0 0.58,0.129a1.949,1.949 0 0 0 0.258,-0.262c0.131,-0.121 0,-0.033 0.064,-0.194a0.558,0.558 0 0 0 -0.388,-0.776l0,-0.062l-0.387,0a2.482,2.482 0 0 0 -0.322,0.324a0.687,0.687 0 0 0 -0.128,0.518zm10.495,14.762a0.6,0.6 0 0 0 0.323,0.323c0.3,0.365 0.875,-0.073 0.966,-0.325l0,-0.388l-0.065,0l0,-0.13a0.385,0.385 0 0 0 -0.193,-0.194c-0.122,-0.129 -0.033,0 -0.194,-0.064a0.776,0.776 0 0 0 -0.644,0.066a1.341,1.341 0 0 0 -0.193,0.711l0,0.001zm8.472,0.348q0,-2.158 0,-4.317q0,-2.918 -0.007,-5.836l0,-2.522a2.191,2.191 0 0 0 -0.066,-0.97a0.816,0.816 0 0 0 -0.387,-0.388l-0.452,-0.711c0,-0.108 0,-0.216 0,-0.323l-0.064,0c0,-0.172 0,-0.345 0,-0.517l0.065,0l0,-0.26l0.064,0l0,-0.194l0.064,0l0,-0.129l0.129,-0.065l0,-0.13l0.129,-0.065l0.257,-0.324l0.129,0l0.064,-0.129l0.129,0l0,-0.065l0.194,0c0,-0.021 0,-0.043 0,-0.065l0.252,0l0,-0.065a2.121,2.121 0 0 1 1.677,0.645l0,0.129l0.129,0.065l0,0.129l0.065,0l0,0.129l0.064,0q0.066,0.388 0.13,0.776l-0.065,0a2.692,2.692 0 0 1 -0.128,0.712l-0.129,0.065l0,0.129l-0.064,0a0.532,0.532 0 0 0 -0.129,0.259l-0.13,0a4.463,4.463 0 0 1 -0.322,0.324q0,2.037 0,4.074q0,2.618 0.007,5.236l0.006,4.917l-0.065,0m-13.023,-5.544a0.4,0.4 0 0 0 0.258,0.194a0.585,0.585 0 0 0 0.516,0.129l0,-0.066l0.193,0l0.193,-0.259c0.369,-0.34 -0.152,-1.16 -0.71,-0.969a1.366,1.366 0 0 0 -0.451,0.389c0.001,0.192 0.001,0.392 0.001,0.582zm0.1,-25.934a2.963,2.963 0 0 0 0.645,0.129l0,-0.066l0.193,0l0.193,-0.259c0.383,-0.353 -0.19,-1.2 -0.774,-0.969a1.672,1.672 0 0 0 -0.387,0.389a2.387,2.387 0 0 0 0.127,0.775l0.003,0.001zm9.728,-5.057a1.052,1.052 0 0 0 0.451,0.387c0,0.022 0,0.043 0,0.065l0.386,0l0,-0.065l0.194,0c0.021,-0.043 0.042,-0.086 0.064,-0.129l0.129,-0.065l0.063,-0.647a1.943,1.943 0 0 0 -0.258,-0.258c-0.122,-0.129 -0.033,0 -0.193,-0.064c-0.5,-0.2 -0.579,0.165 -0.838,0.389c-0.002,0.128 -0.001,0.258 -0.001,0.388l0.003,-0.001zm1.766,20.823l0.064,0l0,0.194a1.6,1.6 0 0 0 0.452,0.323l0,0.061l0.258,0l0,-0.062l0.193,0l0,-0.065a0.49,0.49 0 0 0 0.258,-0.324l0.058,0c0,-0.173 0,-0.345 0,-0.517a0.7,0.7 0 0 0 -0.322,-0.258a0.547,0.547 0 0 0 -0.838,0.26l-0.064,0c-0.02,0.129 -0.041,0.258 -0.062,0.387l0.003,0.001zm10.974,12.792l4.249,-4.209m-3.745,-5.234l0.58,0.258c0.022,0.043 0.044,0.086 0.065,0.129l0.129,0l0,0.065l0.194,0.129l0,0.129l0.129,0.064c0.021,0.086 0.043,0.172 0.065,0.259l0.064,0l0,0.129l0.065,0l0,0.259l0.064,0a2.046,2.046 0 0 1 -0.642,1.747m-7.02,5.377l-0.258,-0.064l-0.129,-0.194l-0.129,0c-0.021,-0.065 -0.043,-0.129 -0.064,-0.194l-0.194,-0.129l0,-0.135l-0.065,0m10.821,-15.724l-7.684,0.009a2.6,2.6 0 0 1 -1.1,0.907l-0.322,0l0,0.065l-0.323,0l0,-0.064l-0.381,0l0,-0.064l-0.387,-0.129l0,-0.065l-0.129,0l-0.259,-0.323l-0.129,-0.065l0,-0.129l-0.129,-0.064a2.455,2.455 0 0 1 -0.195,-1.229a1.752,1.752 0 0 1 2.255,-1.3l0.193,0l0,0.065l0.129,0l0.516,0.387c0,0.043 0,0.086 0,0.129l0.064,0l0.129,0.194l0.129,0l0,0.065l7.551,-0.009m-9.87,0.982a0.74,0.74 0 0 0 0.387,0.388a0.777,0.777 0 0 0 0.645,0l0.064,-0.129l0.129,-0.065c0.021,-0.086 0.043,-0.173 0.064,-0.259l0.064,0a0.686,0.686 0 0 0 -0.645,-0.711a0.589,0.589 0 0 0 -0.451,0.065a1.112,1.112 0 0 0 -0.256,0.714l-0.001,-0.003zm10.377,5.873l-6.373,0.008a1.54,1.54 0 0 1 -0.322,0.324l-0.258,0.324a1.925,1.925 0 0 1 -1.095,0.26l-0.387,0l0,-0.062l-0.194,0l0,-0.065l-0.129,0l0,-0.064l-0.129,0l-0.064,-0.129l-0.129,0l-0.065,-0.129l-0.258,-0.194l0,-0.129l-0.129,-0.065l0,-0.129l-0.065,0c-0.021,-0.129 -0.043,-0.259 -0.064,-0.388l-0.064,0c0,-0.237 0,-0.474 0,-0.711l0.065,0c0,-0.086 0,-0.172 0,-0.259a1.759,1.759 0 0 1 2,-1.1l0.255,0l0,0.065l0.129,0l0,0.062l0.129,0l0,0.065l0.129,0l0.065,0.129l0.129,0l0,0.065l0.258,0.194l0,0.129c0.049,0.067 0.195,0.114 0.258,0.194l6.215,-0.008m-8.534,0.981l0.064,0l0,0.129l0.065,0l0,0.129l0.193,0.063l0.065,0.129l0.516,0c0.073,-0.074 0,-0.026 0.129,-0.065l0.321,-0.453a0.158,0.158 0 0 0 -0.064,-0.194c0,-0.065 0,-0.129 0,-0.194l-0.129,-0.065l-0.196,-0.258l-0.194,0a0.5,0.5 0 0 0 -0.644,0.259a0.686,0.686 0 0 0 -0.128,0.519l0.002,0.001zm6.884,-10.744a1.146,1.146 0 0 0 0.774,0.516l0,-0.066l0.322,-0.065a1.175,1.175 0 0 0 0.257,-0.647l-0.064,0c-0.022,-0.108 -0.043,-0.216 -0.065,-0.323a0.754,0.754 0 0 1 -0.129,-0.129l-0.129,0l0,-0.065l-0.645,0.066a1.228,1.228 0 0 0 -0.323,0.711l0.002,0.002zm-31.902,21.465" class="cls-1" data-name="circuit 1" id="circuit_1-2"/>
  <path fill-rule="evenodd" fill="#ffffff" d="m-0.061,68.993l10.661,0l0,-29.785l17.73,0l14.639,29.785l12.152,0l-16.435,-31.184c8.367,-2.6 13.746,-8.8 13.746,-18.29c0,-12.094 -9.164,-19.59 -22.212,-19.59l-30.281,0l0,69.064zm10.761,-39.18l0,-20.589l19.519,0c7.371,0 11.654,3.9 11.654,10.395c0,6.1 -3.685,9.895 -10.658,10.195l-20.515,0l0,-0.001zm94.826,12.593c0,-13.393 -6.873,-25.686 -22.213,-25.686c-15.542,0 -23.513,12.294 -23.513,26.886c0,14.792 8.865,26.286 24.8,26.286c7.271,0 13.447,-2.2 19.424,-8l-6.67,-5.892a17.865,17.865 0 0 1 -12.554,4.9c-8.965,0 -13.945,-5.1 -14.642,-14.592l35.062,0a18.572,18.572 0 0 0 0.302,-3.901l0.004,-0.001zm-22.416,-16.79c7.968,0 11.754,5.6 12.152,12.793l-25.1,-0.1c0.896,-8.196 5.677,-12.693 12.948,-12.693zm50.7,44.376c11.554,0 20.419,-5.9 20.419,-16.291c0,-10.295 -8.267,-13.093 -16.734,-15.192c-7.171,-1.8 -14.243,-3.2 -13.745,-7.8c0.2,-3.8 4.582,-6 10.458,-5.7a16.66,16.66 0 0 1 12.85,6.5l5.478,-6a23.787,23.787 0 0 0 -19.125,-8.8c-10.956,0 -19.323,5.1 -19.323,15.292s8.964,12.593 17.331,14.492c7.072,1.7 12.85,2.9 12.75,8.2c-0.1,5 -5.379,7.1 -11.256,6.9a17.127,17.127 0 0 1 -14.542,-8.2l-6.275,6c4.084,6.101 12.65,10.599 21.714,10.599zm73.708,-27.585c0,-13.393 -6.873,-25.686 -22.212,-25.686c-15.539,0 -23.507,12.293 -23.507,26.886c0,14.792 8.865,26.286 24.8,26.286c7.271,0 13.447,-2.2 19.423,-8l-6.671,-5.893a17.866,17.866 0 0 1 -12.551,4.9c-8.964,0 -13.945,-5.1 -14.642,-14.592l35.061,0a18.5,18.5 0 0 0 0.299,-3.901zm-22.411,-16.791c7.968,0 11.753,5.6 12.152,12.793l-25.1,-0.1c0.895,-8.196 5.677,-12.693 12.948,-12.693zm47.313,43.277l9.264,0l0,-8.293l-5.284,0c-4.681,0 -6.374,-2 -6.374,-7.5l0,-27.984l12.451,0l0,-7.4l-12.447,0l0,-17.787l-10.359,0l0,17.791l-7.471,0l0,7.4l7.471,0l0,30.38c0,8.8 4.283,13.393 12.749,13.393zm44.024,0l40.142,0l0,-9.393l-29.386,0l0,-59.571l-10.756,0l0,68.964zm68.429,-52.173c-9.96,0 -16.235,3.8 -21.116,10.295l7.371,5.1c3.585,-4.6 7.57,-6.8 14.243,-6.8c7.172,0 11.256,2.5 11.355,8.6c-10.359,3 -18.925,5 -24.8,7.9s-9.365,7.185 -9.365,13.685c0,8.9 6.574,14.492 16.834,14.492c5.478,0 12.949,-3 17.331,-7.3l0,6.2l9.463,0l0,-35.88c0,-11.094 -9.662,-16.292 -21.316,-16.292zm-4.781,44.28c-3.785,0 -6.574,-2.1 -6.574,-6c0,-3.1 1.992,-5.2 5.379,-6.8c3.984,-1.9 11.056,-4.1 17.829,-6.3l0,10.6c-4.581,5.7 -10.259,8.5 -16.634,8.5zm66.736,-44.28c-7.77,0 -13.248,3.3 -16.734,7.7l-0.1,0l0,-24.491l-10.359,0l0,68.964l10.165,0l0,-6.493l0.3,0c3.287,4.3 8.865,7.6 16.634,7.6c14.841,0 22.212,-11.294 22.212,-26.686c-0.006,-15.3 -7.277,-26.594 -22.118,-26.594zm-3.088,44.28c-8.666,0 -14.144,-6.7 -14.144,-17.79c0,-10.594 5.478,-17.391 14.144,-17.391c9.861,0 14.742,6.4 14.742,17.391c0,11.49 -4.882,17.79 -14.742,17.79z" class="cls-1" data-name="Reset Lab" id="Reset_Lab"/>
 </g>
</svg>